<svg xmlns="http://www.w3.org/2000/svg" xmlns:xlink="http://www.w3.org/1999/xlink" width="290" zoomAndPan="magnify" viewBox="0 0 217.5 374.999991" height="500" preserveAspectRatio="xMidYMid meet" version="1.0"><defs><clipPath id="e08404582b"><path d="M 36.421875 349.832031 L 76.605469 349.832031 L 76.605469 368.167969 L 36.421875 368.167969 Z M 36.421875 349.832031 " clip-rule="nonzero"/></clipPath><clipPath id="a4a2e1cecb"><path d="M 45.589844 349.832031 L 67.410156 349.832031 C 72.472656 349.832031 76.578125 353.9375 76.578125 359 C 76.578125 364.0625 72.472656 368.167969 67.410156 368.167969 L 45.589844 368.167969 C 40.527344 368.167969 36.421875 364.0625 36.421875 359 C 36.421875 353.9375 40.527344 349.832031 45.589844 349.832031 Z M 45.589844 349.832031 " clip-rule="nonzero"/></clipPath><clipPath id="b5cff92f20"><path d="M 139.921875 349.832031 L 180.105469 349.832031 L 180.105469 368.167969 L 139.921875 368.167969 Z M 139.921875 349.832031 " clip-rule="nonzero"/></clipPath><clipPath id="d03a9df6b9"><path d="M 149.089844 349.832031 L 170.910156 349.832031 C 175.972656 349.832031 180.078125 353.9375 180.078125 359 C 180.078125 364.0625 175.972656 368.167969 170.910156 368.167969 L 149.089844 368.167969 C 144.027344 368.167969 139.921875 364.0625 139.921875 359 C 139.921875 353.9375 144.027344 349.832031 149.089844 349.832031 Z M 149.089844 349.832031 " clip-rule="nonzero"/></clipPath><clipPath id="eea632d01c"><path d="M 0 2.832031 L 217 2.832031 L 217 352.917969 L 0 352.917969 Z M 0 2.832031 " clip-rule="nonzero"/></clipPath><clipPath id="3a6146babc"><path d="M 31.429688 2.832031 L 185.574219 2.832031 C 193.910156 2.832031 201.902344 6.144531 207.796875 12.039062 C 213.691406 17.933594 217 25.925781 217 34.261719 L 217 321.441406 C 217 329.777344 213.691406 337.769531 207.796875 343.664062 C 201.902344 349.558594 193.910156 352.871094 185.574219 352.871094 L 31.429688 352.871094 C 23.09375 352.871094 15.097656 349.558594 9.203125 343.664062 C 3.3125 337.769531 0 329.777344 0 321.441406 L 0 34.261719 C 0 16.902344 14.070312 2.832031 31.429688 2.832031 Z M 31.429688 2.832031 " clip-rule="nonzero"/></clipPath><clipPath id="5c61791c3d"><path d="M 0 2.832031 L 217 2.832031 L 217 356 L 0 356 Z M 0 2.832031 " clip-rule="nonzero"/></clipPath><clipPath id="b4a830e04b"><path d="M 27 343 L 91 343 L 91 374.570312 L 27 374.570312 Z M 27 343 " clip-rule="nonzero"/></clipPath><clipPath id="b45b12d2be"><path d="M 126 343 L 190 343 L 190 374.570312 L 126 374.570312 Z M 126 343 " clip-rule="nonzero"/></clipPath><clipPath id="789919fa2c"><path d="M 76.578125 22.160156 L 179.84375 22.160156 L 179.84375 115.695312 L 76.578125 115.695312 Z M 76.578125 22.160156 " clip-rule="nonzero"/></clipPath></defs><g clip-path="url(#e08404582b)"><g clip-path="url(#a4a2e1cecb)"><path fill="#b3f1be" d="M 36.421875 349.832031 L 76.605469 349.832031 L 76.605469 368.167969 L 36.421875 368.167969 Z M 36.421875 349.832031 " fill-opacity="1" fill-rule="nonzero"/></g></g><g clip-path="url(#b5cff92f20)"><g clip-path="url(#d03a9df6b9)"><path fill="#b3f1be" d="M 139.921875 349.832031 L 180.105469 349.832031 L 180.105469 368.167969 L 139.921875 368.167969 Z M 139.921875 349.832031 " fill-opacity="1" fill-rule="nonzero"/></g></g><g clip-path="url(#eea632d01c)"><g clip-path="url(#3a6146babc)"><path fill="#b3f1be" d="M 0 2.832031 L 217 2.832031 L 217 352.917969 L 0 352.917969 Z M 0 2.832031 " fill-opacity="1" fill-rule="nonzero"/></g></g><g clip-path="url(#5c61791c3d)"><path fill="#000000" d="M 193.691406 355.617188 L 23.238281 355.617188 C 10.488281 355.617188 0.117188 345.238281 0.117188 332.484375 L 0.117188 25.96875 C 0.117188 13.214844 10.488281 2.839844 23.238281 2.839844 L 193.691406 2.839844 C 206.441406 2.839844 216.8125 13.214844 216.8125 25.96875 L 216.8125 332.488281 C 216.808594 345.238281 206.441406 355.617188 193.691406 355.617188 Z M 23.238281 14.460938 C 16.894531 14.460938 11.734375 19.625 11.734375 25.96875 L 11.734375 332.488281 C 11.734375 338.835938 16.894531 343.996094 23.238281 343.996094 L 193.691406 343.996094 C 200.035156 343.996094 205.195312 338.835938 205.195312 332.488281 L 205.195312 25.96875 C 205.195312 19.625 200.035156 14.460938 193.691406 14.460938 Z M 23.238281 14.460938 " fill-opacity="1" fill-rule="evenodd"/></g><path fill="#000000" d="M 42.910156 111.578125 L 36.257812 111.578125 C 30.101562 111.578125 25.09375 106.570312 25.09375 100.410156 L 25.09375 54.464844 C 25.09375 48.304688 30.101562 43.296875 36.257812 43.296875 L 42.910156 43.296875 C 49.066406 43.296875 54.070312 48.304688 54.070312 54.464844 L 54.070312 100.410156 C 54.074219 106.570312 49.066406 111.578125 42.910156 111.578125 Z M 36.710938 99.957031 L 42.457031 99.957031 L 42.457031 54.917969 L 36.710938 54.917969 Z M 36.710938 99.957031 " fill-opacity="1" fill-rule="evenodd"/><path fill="#000000" d="M 43.53125 227.523438 L 35.835938 227.523438 C 29.679688 227.523438 24.671875 222.515625 24.671875 216.359375 L 24.671875 156.878906 C 24.671875 150.71875 29.679688 145.710938 35.835938 145.710938 L 43.53125 145.710938 C 49.6875 145.710938 54.695312 150.71875 54.695312 156.878906 L 54.695312 216.355469 C 54.699219 222.515625 49.6875 227.523438 43.53125 227.523438 Z M 36.289062 215.902344 L 43.082031 215.902344 L 43.082031 157.328125 L 36.289062 157.328125 Z M 36.289062 215.902344 " fill-opacity="1" fill-rule="evenodd"/><path fill="#000000" d="M 211 134.457031 L 5.925781 134.457031 C 2.714844 134.457031 0.117188 131.855469 0.117188 128.644531 C 0.117188 125.433594 2.714844 122.835938 5.925781 122.835938 L 211 122.835938 C 214.210938 122.835938 216.808594 125.433594 216.808594 128.644531 C 216.808594 131.855469 214.210938 134.457031 211 134.457031 Z M 211 134.457031 " fill-opacity="1" fill-rule="evenodd"/><g clip-path="url(#b4a830e04b)"><path fill="#000000" d="M 76.042969 374.722656 L 42.242188 374.722656 C 39.960938 374.722656 37.890625 373.390625 36.949219 371.3125 L 28.296875 352.207031 C 27.480469 350.40625 27.636719 348.320312 28.707031 346.660156 C 29.777344 345 31.613281 343.996094 33.585938 343.996094 L 84.699219 343.996094 C 86.671875 343.996094 88.511719 345 89.582031 346.660156 C 90.652344 348.320312 90.804688 350.40625 89.992188 352.207031 L 81.335938 371.316406 C 80.390625 373.390625 78.324219 374.722656 76.042969 374.722656 Z M 45.984375 363.101562 L 72.296875 363.101562 L 75.6875 355.621094 L 42.597656 355.621094 Z M 45.984375 363.101562 " fill-opacity="1" fill-rule="evenodd"/></g><g clip-path="url(#b45b12d2be)"><path fill="#000000" d="M 174.683594 374.722656 L 140.882812 374.722656 C 138.601562 374.722656 136.53125 373.390625 135.589844 371.3125 L 126.933594 352.207031 C 126.117188 350.40625 126.269531 348.320312 127.339844 346.660156 C 128.414062 345 130.25 343.996094 132.222656 343.996094 L 183.335938 343.996094 C 185.308594 343.996094 187.152344 345 188.21875 346.660156 C 189.289062 348.320312 189.441406 350.40625 188.625 352.207031 L 179.972656 371.316406 C 179.03125 373.390625 176.964844 374.722656 174.683594 374.722656 Z M 144.625 363.101562 L 170.9375 363.101562 L 174.328125 355.621094 L 141.234375 355.621094 Z M 144.625 363.101562 " fill-opacity="1" fill-rule="evenodd"/></g><g clip-path="url(#789919fa2c)"><path fill="#0a0a0a" d="M 125.648438 30.554688 C 125.519531 30.644531 126.265625 31.515625 124.902344 30.382812 C 122.742188 28.636719 120.691406 27.207031 118.507812 25.972656 C 116.320312 24.753906 113.992188 23.738281 111.257812 23.128906 C 111.109375 23.175781 110.957031 23.226562 110.808594 23.277344 C 108.734375 22.714844 106.539062 22.378906 104.277344 22.273438 C 102.019531 22.167969 99.679688 22.289062 97.351562 22.78125 C 95.230469 23.300781 93.128906 24.011719 91.179688 25.0625 C 90.675781 25.289062 90.222656 25.613281 89.742188 25.886719 L 89.035156 26.316406 C 88.800781 26.464844 88.585938 26.636719 88.359375 26.796875 C 87.917969 27.125 87.460938 27.441406 87.035156 27.789062 L 85.792969 28.878906 C 84.210938 30.394531 82.757812 32.058594 81.628906 33.890625 C 81.007812 34.777344 80.546875 35.738281 80.035156 36.675781 C 79.777344 37.140625 79.597656 37.636719 79.375 38.117188 C 79.175781 38.601562 78.9375 39.078125 78.769531 39.574219 C 78.925781 39.398438 79.035156 39.335938 78.785156 40.125 C 78.210938 41.734375 77.585938 43.746094 77.203125 45.992188 C 76.804688 48.234375 76.640625 50.710938 76.785156 53.195312 C 76.828125 53.929688 76.941406 54.652344 77.023438 55.363281 C 77.144531 55.914062 77.261719 56.039062 77.324219 56.125 C 77.644531 58.3125 78.082031 60.222656 78.585938 61.945312 C 80.445312 67.574219 83.316406 72.660156 86.613281 77.355469 C 89.929688 82.046875 93.699219 86.378906 97.746094 90.476562 C 101.792969 94.574219 106.125 98.445312 110.683594 102.152344 C 115.246094 105.863281 120.027344 109.417969 125.0625 112.820312 C 126.570312 113.78125 128.082031 114.742188 129.585938 115.699219 L 131.132812 114.585938 L 132.605469 113.511719 C 133.335938 112.953125 134.066406 112.394531 134.792969 111.839844 C 136.226562 110.734375 137.640625 109.625 139.023438 108.527344 C 141.90625 106.28125 145.164062 103.695312 148.324219 101.019531 C 151.484375 98.347656 154.542969 95.582031 157.089844 93.074219 C 156.402344 93.15625 159.085938 90.070312 161.367188 87.066406 C 163.660156 84.0625 165.539062 81.164062 164.125 82.222656 C 165.625 80.421875 167.414062 78.101562 168.746094 76.125 C 170.085938 74.152344 170.992188 72.546875 170.980469 72.332031 C 170.941406 71.675781 171.238281 70.492188 172.085938 68.09375 C 172.503906 66.890625 173.0625 65.390625 173.664062 63.472656 C 174.265625 61.5625 174.921875 59.230469 175.351562 56.402344 C 175.742188 54.199219 175.984375 51.40625 175.8125 48.992188 C 175.65625 46.582031 175.109375 44.582031 174.824219 43.867188 C 174.566406 43.234375 174.523438 43.304688 174.589844 43.734375 C 174.652344 44.113281 174.769531 44.8125 174.882812 45.511719 C 174.925781 45.855469 174.96875 46.203125 175.003906 46.507812 C 175.035156 46.8125 175.035156 47.082031 175.035156 47.269531 C 175.035156 47.644531 174.980469 47.699219 174.828125 47.128906 C 175.347656 50.246094 175.191406 53.464844 174.53125 56.648438 C 174.199219 58.242188 173.75 59.824219 173.199219 61.386719 C 172.636719 62.949219 171.976562 64.492188 171.242188 66.011719 C 168.273438 72.085938 164.132812 77.726562 159.542969 82.980469 C 154.929688 88.238281 149.820312 93.128906 144.4375 97.75 C 141.746094 100.054688 138.976562 102.292969 136.144531 104.460938 C 134.730469 105.546875 133.300781 106.609375 131.851562 107.65625 L 129.71875 109.175781 L 129.617188 109.246094 L 129.605469 109.253906 L 129.585938 109.273438 L 129.566406 109.261719 C 129.558594 109.257812 129.574219 109.269531 129.46875 109.199219 C 128.804688 108.730469 128.136719 108.261719 127.46875 107.792969 C 126.066406 106.789062 124.671875 105.765625 123.285156 104.71875 C 120.515625 102.625 117.785156 100.449219 115.117188 98.1875 C 113.917969 97.230469 111.882812 95.558594 109.308594 93.230469 C 106.738281 90.90625 103.617188 87.933594 100.335938 84.347656 C 97.0625 80.757812 93.601562 76.558594 90.585938 71.773438 C 87.585938 67.003906 84.996094 61.597656 83.992188 55.953125 C 83.5 53.136719 83.398438 50.285156 83.808594 47.535156 C 83.996094 46.152344 84.335938 44.816406 84.777344 43.488281 C 85.222656 42.148438 85.753906 40.863281 86.378906 39.65625 C 87.636719 37.242188 89.28125 35.160156 91.207031 33.542969 C 93.117188 31.90625 95.339844 30.785156 97.613281 30.105469 C 99.886719 29.421875 102.214844 29.175781 104.421875 29.25 C 106.632812 29.320312 108.71875 29.707031 110.585938 30.257812 C 112.457031 30.8125 114.132812 31.503906 115.542969 32.277344 C 115.71875 32.371094 115.894531 32.460938 116.070312 32.550781 C 116.238281 32.652344 116.402344 32.75 116.5625 32.847656 C 116.886719 33.042969 117.199219 33.234375 117.5 33.414062 C 118.078125 33.816406 118.625 34.183594 119.101562 34.542969 C 119.554688 34.90625 120.027344 35.246094 120.464844 35.621094 C 121.054688 36.164062 121.667969 36.699219 122.222656 37.308594 C 122.507812 37.605469 122.800781 37.898438 123.054688 38.222656 L 123.453125 38.703125 L 123.757812 39.058594 L 123.808594 39.121094 L 123.832031 39.152344 L 123.878906 39.222656 C 125.929688 42.082031 127.8125 46.09375 129.585938 49.441406 C 130.625 47.433594 131.664062 45.421875 132.703125 43.410156 L 133.105469 42.636719 L 133.308594 42.253906 L 133.523438 41.917969 L 134.382812 40.582031 L 135.238281 39.25 C 135.324219 39.109375 135.351562 39.089844 135.390625 39.039062 L 135.503906 38.902344 L 135.734375 38.625 C 136.941406 37.128906 138.316406 35.773438 139.800781 34.628906 C 141.277344 33.476562 142.824219 32.484375 144.386719 31.683594 C 145.953125 30.910156 147.503906 30.269531 148.988281 29.816406 C 152.898438 28.554688 157.210938 28.140625 161.300781 29.007812 C 159.464844 28.371094 157.660156 28.007812 156.058594 27.824219 C 158.25 27.871094 160.402344 28.265625 162.140625 28.816406 C 162.585938 28.925781 162.988281 29.097656 163.371094 29.234375 C 163.753906 29.382812 164.125 29.488281 164.441406 29.648438 C 164.761719 29.789062 165.054688 29.917969 165.316406 30.03125 C 165.449219 30.085938 165.574219 30.136719 165.6875 30.183594 C 165.800781 30.238281 165.902344 30.289062 165.996094 30.335938 C 168.054688 31.378906 169.140625 32.308594 169.789062 32.722656 C 170.117188 32.929688 170.304688 33.046875 170.394531 33.074219 C 170.492188 33.097656 170.496094 33.019531 170.429688 32.867188 C 170.292969 32.566406 169.816406 32.019531 169.234375 31.328125 C 168.597656 30.710938 167.847656 29.949219 167.085938 29.367188 C 166.535156 28.960938 166.320312 28.757812 166.257812 28.648438 C 166.199219 28.535156 166.300781 28.496094 166.359375 28.433594 C 166.421875 28.371094 166.4375 28.289062 166.195312 28.085938 C 166.074219 27.984375 165.890625 27.851562 165.613281 27.675781 C 165.46875 27.589844 165.308594 27.492188 165.121094 27.378906 C 164.929688 27.28125 164.707031 27.179688 164.453125 27.066406 C 165.941406 27.65625 167 28.25 168.027344 28.886719 C 169.042969 29.53125 170.019531 30.25 171.210938 31.339844 C 171.320312 31.355469 170.90625 30.960938 170.246094 30.378906 C 169.917969 30.078125 169.480469 29.804688 169.039062 29.476562 C 168.816406 29.324219 168.597656 29.144531 168.351562 29 C 168.109375 28.855469 167.863281 28.710938 167.621094 28.570312 C 167.378906 28.425781 167.140625 28.285156 166.90625 28.148438 C 166.675781 28.015625 166.433594 27.914062 166.21875 27.804688 C 165.78125 27.589844 165.398438 27.394531 165.109375 27.246094 C 164.519531 26.992188 164.324219 26.863281 164.890625 26.972656 C 167.753906 28.210938 170.742188 30.183594 172.921875 32.617188 C 172.855469 32.488281 172.683594 32.261719 172.4375 31.964844 C 172.179688 31.671875 171.882812 31.277344 171.460938 30.914062 C 171.046875 30.542969 170.605469 30.101562 170.089844 29.707031 C 169.566406 29.324219 169.042969 28.894531 168.484375 28.542969 C 167.917969 28.203125 167.375 27.839844 166.847656 27.558594 C 166.316406 27.289062 165.832031 27.039062 165.425781 26.832031 C 164.59375 26.457031 164.09375 26.226562 164.242188 26.195312 C 165.105469 26.4375 167.210938 27.492188 168.980469 28.769531 C 169.414062 29.101562 169.839844 29.429688 170.238281 29.734375 C 170.625 30.050781 170.964844 30.375 171.28125 30.632812 C 171.921875 31.148438 172.335938 31.5625 172.523438 31.605469 C 172.59375 31.628906 172.085938 31.003906 171.300781 30.339844 C 170.5625 29.621094 169.519531 28.917969 168.847656 28.425781 C 171.019531 29.8125 172.675781 31.421875 173.910156 32.769531 C 175.148438 34.132812 175.910156 35.289062 176.410156 35.882812 C 176.851562 36.511719 177.007812 36.601562 176.789062 35.992188 C 176.691406 35.679688 176.4375 35.226562 176.074219 34.578125 C 175.886719 34.261719 175.691406 33.878906 175.414062 33.476562 C 175.128906 33.082031 174.808594 32.636719 174.457031 32.144531 C 174.972656 32.8125 175.585938 33.519531 176.082031 34.355469 C 176.339844 34.765625 176.617188 35.179688 176.875 35.613281 C 177.105469 36.054688 177.34375 36.503906 177.578125 36.953125 L 177.933594 37.628906 L 178.230469 38.324219 C 178.429688 38.785156 178.628906 39.246094 178.820312 39.695312 C 179.171875 40.605469 179.464844 41.5 179.773438 42.3125 C 179.773438 42.308594 179.769531 42.292969 179.769531 42.285156 C 179.242188 40.644531 178.238281 37.800781 177.359375 36.40625 C 177.59375 36.847656 177.847656 37.28125 178.0625 37.730469 L 178.667969 39.09375 L 178.96875 39.777344 C 179.0625 40.007812 179.136719 40.242188 179.222656 40.476562 L 179.710938 41.875 C 179.664062 41.5625 179.597656 41.210938 179.523438 40.839844 C 179.410156 40.488281 179.296875 40.132812 179.183594 39.777344 C 179.039062 39.429688 178.894531 39.082031 178.75 38.734375 C 178.601562 38.382812 178.453125 38.03125 178.304688 37.679688 C 178.152344 37.324219 177.949219 36.988281 177.765625 36.640625 L 178.242188 37.523438 L 178.644531 38.4375 C 178.902344 39.050781 179.214844 39.648438 179.414062 40.28125 C 179.324219 39.785156 179.152344 39.273438 178.980469 38.726562 C 178.792969 38.179688 178.636719 37.585938 178.378906 36.996094 C 177.414062 34.777344 176.121094 32.714844 174.804688 30.996094 C 174.105469 30.171875 173.464844 29.378906 172.773438 28.765625 C 172.441406 28.449219 172.125 28.148438 171.820312 27.882812 C 171.5 27.632812 171.199219 27.40625 170.921875 27.203125 C 170.472656 26.867188 170.019531 26.53125 169.53125 26.25 C 169.050781 25.960938 168.574219 25.652344 168.082031 25.386719 L 166.570312 24.640625 C 166.066406 24.390625 165.535156 24.214844 165.015625 24 C 162.917969 23.226562 160.738281 22.664062 158.535156 22.445312 C 156.339844 22.210938 154.128906 22.203125 151.953125 22.4375 C 149.785156 22.691406 147.648438 23.148438 145.574219 23.792969 C 143.511719 24.472656 141.511719 25.332031 139.597656 26.363281 C 137.703125 27.421875 135.898438 28.65625 134.210938 30.042969 C 133.398438 30.773438 132.566406 31.484375 131.816406 32.292969 C 131.433594 32.683594 131.046875 33.070312 130.699219 33.5 L 129.675781 34.710938 C 129.625 34.769531 129.605469 34.785156 129.585938 34.8125 C 129.566406 34.761719 129.5625 34.742188 129.53125 34.691406 L 129.527344 34.683594 L 129.472656 34.617188 L 129.347656 34.46875 L 128.855469 33.875 C 128.515625 33.488281 128.207031 33.070312 127.84375 32.707031 L 126.773438 31.601562 C 126.417969 31.230469 126.023438 30.902344 125.648438 30.554688 " fill-opacity="1" fill-rule="nonzero"/></g></svg>