<svg xmlns="http://www.w3.org/2000/svg" xmlns:xlink="http://www.w3.org/1999/xlink" width="500" zoomAndPan="magnify" viewBox="0 0 375 374.999991" height="500" preserveAspectRatio="xMidYMid meet" version="1.0"><defs><clipPath id="eba918b6b9"><path d="M 79.648438 2.746094 L 297 2.746094 L 297 356 L 79.648438 356 Z M 79.648438 2.746094 " clip-rule="nonzero"/></clipPath><clipPath id="2324b2c52e"><path d="M 79.648438 122 L 297 122 L 297 135 L 79.648438 135 Z M 79.648438 122 " clip-rule="nonzero"/></clipPath><clipPath id="57880462d2"><path d="M 107 344 L 171 344 L 171 374.746094 L 107 374.746094 Z M 107 344 " clip-rule="nonzero"/></clipPath><clipPath id="f76dc08fec"><path d="M 206 344 L 270 344 L 270 374.746094 L 206 374.746094 Z M 206 344 " clip-rule="nonzero"/></clipPath><clipPath id="452dbc84f2"><path d="M 156.335938 22.097656 L 259.835938 22.097656 L 259.835938 115.847656 L 156.335938 115.847656 Z M 156.335938 22.097656 " clip-rule="nonzero"/></clipPath></defs><g clip-path="url(#eba918b6b9)"><path fill="#000000" d="M 273.785156 355.625 L 102.9375 355.625 C 90.160156 355.625 79.765625 345.246094 79.765625 332.488281 L 79.765625 25.886719 C 79.765625 13.128906 90.160156 2.75 102.9375 2.75 L 273.785156 2.75 C 286.5625 2.75 296.960938 13.128906 296.960938 25.886719 L 296.960938 332.492188 C 296.957031 345.246094 286.5625 355.625 273.785156 355.625 Z M 102.9375 14.375 C 96.582031 14.375 91.410156 19.539062 91.410156 25.886719 L 91.410156 332.492188 C 91.410156 338.839844 96.582031 344.003906 102.9375 344.003906 L 273.785156 344.003906 C 280.144531 344.003906 285.316406 338.839844 285.316406 332.492188 L 285.316406 25.886719 C 285.316406 19.539062 280.144531 14.375 273.785156 14.375 Z M 102.9375 14.375 " fill-opacity="1" fill-rule="evenodd"/></g><path fill="#000000" d="M 122.65625 111.519531 L 115.988281 111.519531 C 109.820312 111.519531 104.800781 106.511719 104.800781 100.351562 L 104.800781 54.390625 C 104.800781 48.230469 109.816406 43.21875 115.988281 43.21875 L 122.65625 43.21875 C 128.828125 43.21875 133.84375 48.230469 133.84375 54.390625 L 133.84375 100.351562 C 133.847656 106.511719 128.828125 111.519531 122.65625 111.519531 Z M 116.441406 99.894531 L 122.203125 99.894531 L 122.203125 54.84375 L 116.441406 54.84375 Z M 116.441406 99.894531 " fill-opacity="1" fill-rule="evenodd"/><path fill="#000000" d="M 123.28125 227.496094 L 115.566406 227.496094 C 109.398438 227.496094 104.378906 222.488281 104.378906 216.328125 L 104.378906 156.832031 C 104.378906 150.671875 109.398438 145.660156 115.566406 145.660156 L 123.28125 145.660156 C 129.449219 145.660156 134.46875 150.671875 134.46875 156.832031 L 134.46875 216.328125 C 134.472656 222.488281 129.449219 227.496094 123.28125 227.496094 Z M 116.019531 215.871094 L 122.828125 215.871094 L 122.828125 157.285156 L 116.019531 157.285156 Z M 116.019531 215.871094 " fill-opacity="1" fill-rule="evenodd"/><g clip-path="url(#2324b2c52e)"><path fill="#000000" d="M 291.132812 134.402344 L 85.585938 134.402344 C 82.371094 134.402344 79.765625 131.804688 79.765625 128.589844 C 79.765625 125.378906 82.371094 122.777344 85.585938 122.777344 L 291.132812 122.777344 C 294.351562 122.777344 296.957031 125.378906 296.957031 128.589844 C 296.957031 131.804688 294.351562 134.402344 291.132812 134.402344 Z M 291.132812 134.402344 " fill-opacity="1" fill-rule="evenodd"/></g><g clip-path="url(#57880462d2)"><path fill="#000000" d="M 155.867188 374.738281 L 121.984375 374.738281 C 119.703125 374.738281 117.625 373.40625 116.683594 371.324219 L 108.011719 352.21875 C 107.191406 350.417969 107.347656 348.328125 108.421875 346.667969 C 109.492188 345.007812 111.335938 344.003906 113.3125 344.003906 L 164.542969 344.003906 C 166.519531 344.003906 168.363281 345.007812 169.4375 346.667969 C 170.511719 348.328125 170.660156 350.417969 169.847656 352.21875 L 161.171875 371.328125 C 160.226562 373.40625 158.152344 374.738281 155.867188 374.738281 Z M 125.738281 363.117188 L 152.113281 363.117188 L 155.511719 355.628906 L 122.34375 355.628906 Z M 125.738281 363.117188 " fill-opacity="1" fill-rule="evenodd"/></g><g clip-path="url(#f76dc08fec)"><path fill="#000000" d="M 254.734375 374.738281 L 220.855469 374.738281 C 218.570312 374.738281 216.496094 373.40625 215.550781 371.324219 L 206.875 352.21875 C 206.054688 350.417969 206.210938 348.328125 207.28125 346.667969 C 208.355469 345.007812 210.199219 344.003906 212.175781 344.003906 L 263.40625 344.003906 C 265.382812 344.003906 267.230469 345.007812 268.300781 346.667969 C 269.375 348.328125 269.523438 350.417969 268.710938 352.21875 L 260.035156 371.328125 C 259.09375 373.40625 257.023438 374.738281 254.734375 374.738281 Z M 224.605469 363.117188 L 250.980469 363.117188 L 254.375 355.628906 L 221.210938 355.628906 Z M 224.605469 363.117188 " fill-opacity="1" fill-rule="evenodd"/></g><g clip-path="url(#452dbc84f2)"><path fill="#0a0a0a" d="M 205.515625 30.511719 C 205.390625 30.601562 206.136719 31.476562 204.769531 30.339844 C 202.601562 28.589844 200.546875 27.15625 198.359375 25.921875 C 196.167969 24.699219 193.832031 23.679688 191.09375 23.066406 C 190.945312 23.117188 190.792969 23.167969 190.640625 23.21875 C 188.5625 22.652344 186.363281 22.320312 184.097656 22.210938 C 181.832031 22.105469 179.488281 22.226562 177.15625 22.722656 C 175.027344 23.238281 172.921875 23.953125 170.96875 25.007812 C 170.464844 25.234375 170.007812 25.558594 169.527344 25.832031 L 168.820312 26.265625 C 168.585938 26.410156 168.367188 26.585938 168.140625 26.746094 C 167.695312 27.074219 167.242188 27.390625 166.8125 27.738281 L 165.570312 28.832031 C 163.980469 30.351562 162.527344 32.019531 161.394531 33.855469 C 160.769531 34.746094 160.308594 35.707031 159.796875 36.644531 C 159.539062 37.113281 159.359375 37.609375 159.136719 38.089844 C 158.933594 38.578125 158.699219 39.054688 158.527344 39.550781 C 158.683594 39.378906 158.792969 39.3125 158.546875 40.101562 C 157.96875 41.71875 157.34375 43.730469 156.957031 45.984375 C 156.5625 48.234375 156.394531 50.714844 156.539062 53.203125 C 156.582031 53.941406 156.695312 54.664062 156.78125 55.378906 C 156.902344 55.929688 157.019531 56.054688 157.082031 56.140625 C 157.402344 58.335938 157.839844 60.246094 158.34375 61.972656 C 160.207031 67.617188 163.085938 72.710938 166.390625 77.417969 C 169.714844 82.121094 173.492188 86.464844 177.550781 90.570312 C 181.609375 94.679688 185.949219 98.558594 190.515625 102.273438 C 195.089844 105.992188 199.882812 109.554688 204.929688 112.964844 C 206.441406 113.929688 207.957031 114.894531 209.464844 115.851562 L 211.015625 114.738281 L 212.488281 113.660156 C 213.222656 113.097656 213.957031 112.542969 214.683594 111.984375 C 216.121094 110.875 217.535156 109.765625 218.925781 108.664062 C 221.8125 106.410156 225.078125 103.820312 228.246094 101.140625 C 231.414062 98.460938 234.480469 95.691406 237.03125 93.175781 C 236.34375 93.257812 239.03125 90.164062 241.316406 87.152344 C 243.617188 84.144531 245.5 81.238281 244.085938 82.296875 C 245.585938 80.496094 247.378906 78.167969 248.714844 76.1875 C 250.058594 74.210938 250.96875 72.601562 250.957031 72.382812 C 250.914062 71.726562 251.214844 70.539062 252.0625 68.136719 C 252.480469 66.933594 253.042969 65.429688 253.644531 63.507812 C 254.246094 61.589844 254.90625 59.253906 255.335938 56.417969 C 255.726562 54.210938 255.96875 51.410156 255.796875 48.992188 C 255.644531 46.574219 255.089844 44.570312 254.808594 43.855469 C 254.546875 43.21875 254.507812 43.292969 254.574219 43.71875 C 254.636719 44.101562 254.75 44.800781 254.867188 45.503906 C 254.910156 45.847656 254.949219 46.195312 254.988281 46.5 C 255.019531 46.804688 255.019531 47.078125 255.019531 47.265625 C 255.015625 47.640625 254.964844 47.695312 254.8125 47.125 C 255.332031 50.246094 255.175781 53.476562 254.511719 56.664062 C 254.183594 58.261719 253.730469 59.847656 253.175781 61.414062 C 252.613281 62.980469 251.953125 64.527344 251.214844 66.050781 C 248.242188 72.140625 244.09375 77.792969 239.488281 83.058594 C 234.867188 88.328125 229.742188 93.230469 224.351562 97.859375 C 221.652344 100.171875 218.878906 102.417969 216.039062 104.589844 C 214.621094 105.675781 213.1875 106.742188 211.734375 107.789062 L 209.59375 109.3125 L 209.492188 109.382812 L 209.464844 109.410156 L 209.445312 109.398438 C 209.4375 109.394531 209.453125 109.40625 209.34375 109.335938 C 208.679688 108.867188 208.011719 108.398438 207.34375 107.929688 C 205.9375 106.921875 204.535156 105.894531 203.148438 104.847656 C 200.375 102.746094 197.636719 100.566406 194.960938 98.300781 C 193.761719 97.339844 191.71875 95.664062 189.140625 93.332031 C 186.5625 91 183.433594 88.023438 180.144531 84.425781 C 176.867188 80.832031 173.394531 76.621094 170.375 71.824219 C 167.367188 67.042969 164.769531 61.628906 163.765625 55.96875 C 163.269531 53.148438 163.167969 50.289062 163.582031 47.53125 C 163.769531 46.144531 164.105469 44.804688 164.550781 43.476562 C 164.996094 42.132812 165.527344 40.84375 166.15625 39.632812 C 167.414062 37.214844 169.0625 35.128906 170.992188 33.507812 C 172.910156 31.867188 175.136719 30.742188 177.414062 30.0625 C 179.695312 29.375 182.03125 29.128906 184.242188 29.203125 C 186.457031 29.273438 188.546875 29.664062 190.421875 30.214844 C 192.296875 30.769531 193.972656 31.460938 195.386719 32.238281 C 195.566406 32.332031 195.742188 32.421875 195.914062 32.511719 C 196.082031 32.613281 196.246094 32.710938 196.410156 32.8125 C 196.734375 33.007812 197.046875 33.195312 197.351562 33.378906 C 197.929688 33.78125 198.476562 34.148438 198.953125 34.507812 C 199.410156 34.875 199.882812 35.214844 200.320312 35.589844 C 200.914062 36.132812 201.527344 36.671875 202.082031 37.28125 C 202.367188 37.578125 202.660156 37.871094 202.917969 38.199219 L 203.316406 38.675781 L 203.621094 39.035156 L 203.671875 39.097656 L 203.699219 39.128906 L 203.746094 39.199219 C 205.796875 42.0625 207.6875 46.085938 209.464844 49.441406 C 210.503906 47.429688 211.546875 45.414062 212.589844 43.398438 L 212.992188 42.621094 L 213.195312 42.234375 L 213.410156 41.902344 L 214.269531 40.5625 L 215.128906 39.226562 C 215.214844 39.085938 215.242188 39.066406 215.28125 39.015625 L 215.394531 38.878906 L 215.625 38.597656 C 216.835938 37.101562 218.210938 35.742188 219.699219 34.59375 C 221.183594 33.441406 222.734375 32.445312 224.296875 31.644531 C 225.871094 30.871094 227.421875 30.226562 228.914062 29.773438 C 232.832031 28.507812 237.152344 28.09375 241.25 28.960938 C 239.414062 28.320312 237.601562 27.960938 236 27.773438 C 238.195312 27.820312 240.351562 28.21875 242.09375 28.769531 C 242.542969 28.878906 242.941406 29.050781 243.328125 29.1875 C 243.710938 29.335938 244.085938 29.441406 244.398438 29.601562 C 244.722656 29.742188 245.015625 29.871094 245.277344 29.988281 C 245.410156 30.042969 245.535156 30.09375 245.652344 30.140625 C 245.761719 30.195312 245.863281 30.246094 245.957031 30.292969 C 248.023438 31.335938 249.113281 32.269531 249.761719 32.683594 C 250.089844 32.890625 250.277344 33.011719 250.367188 33.035156 C 250.464844 33.058594 250.46875 32.984375 250.402344 32.832031 C 250.265625 32.527344 249.785156 31.980469 249.203125 31.289062 C 248.566406 30.667969 247.8125 29.90625 247.050781 29.324219 C 246.5 28.914062 246.285156 28.710938 246.222656 28.601562 C 246.160156 28.488281 246.265625 28.445312 246.324219 28.386719 C 246.382812 28.324219 246.398438 28.238281 246.15625 28.035156 C 246.035156 27.933594 245.851562 27.800781 245.574219 27.625 C 245.429688 27.542969 245.269531 27.441406 245.082031 27.332031 C 244.890625 27.230469 244.664062 27.128906 244.410156 27.015625 C 245.90625 27.609375 246.964844 28.199219 247.992188 28.839844 C 249.011719 29.488281 249.992188 30.207031 251.1875 31.296875 C 251.296875 31.3125 250.878906 30.917969 250.21875 30.332031 C 249.890625 30.035156 249.449219 29.757812 249.011719 29.433594 C 248.785156 29.277344 248.5625 29.097656 248.320312 28.953125 C 248.074219 28.808594 247.828125 28.664062 247.585938 28.523438 C 247.34375 28.378906 247.105469 28.238281 246.871094 28.101562 C 246.636719 27.96875 246.398438 27.867188 246.179688 27.753906 C 245.742188 27.539062 245.359375 27.347656 245.070312 27.195312 C 244.476562 26.941406 244.285156 26.808594 244.847656 26.921875 C 247.71875 28.164062 250.714844 30.136719 252.898438 32.578125 C 252.832031 32.449219 252.664062 32.222656 252.414062 31.921875 C 252.15625 31.632812 251.859375 31.234375 251.433594 30.871094 C 251.019531 30.5 250.578125 30.054688 250.0625 29.660156 C 249.539062 29.28125 249.015625 28.847656 248.453125 28.496094 C 247.882812 28.15625 247.339844 27.789062 246.8125 27.511719 C 246.277344 27.238281 245.792969 26.988281 245.386719 26.777344 C 244.554688 26.40625 244.050781 26.175781 244.199219 26.140625 C 245.066406 26.386719 247.179688 27.445312 248.949219 28.722656 C 249.382812 29.054688 249.8125 29.382812 250.210938 29.6875 C 250.601562 30.003906 250.941406 30.328125 251.253906 30.589844 C 251.898438 31.109375 252.3125 31.523438 252.503906 31.5625 C 252.570312 31.585938 252.0625 30.960938 251.273438 30.296875 C 250.535156 29.578125 249.492188 28.871094 248.816406 28.378906 C 250.996094 29.765625 252.652344 31.378906 253.890625 32.730469 C 255.132812 34.097656 255.894531 35.257812 256.398438 35.851562 C 256.839844 36.480469 256.996094 36.570312 256.777344 35.960938 C 256.679688 35.648438 256.425781 35.195312 256.0625 34.546875 C 255.871094 34.226562 255.675781 33.84375 255.398438 33.441406 C 255.113281 33.042969 254.792969 32.597656 254.4375 32.105469 C 254.953125 32.773438 255.570312 33.484375 256.066406 34.320312 C 256.328125 34.734375 256.605469 35.148438 256.863281 35.582031 C 257.09375 36.023438 257.332031 36.476562 257.566406 36.925781 L 257.921875 37.601562 L 258.222656 38.300781 C 258.421875 38.761719 258.617188 39.222656 258.8125 39.675781 C 259.164062 40.585938 259.457031 41.484375 259.765625 42.296875 C 259.769531 42.292969 259.765625 42.277344 259.765625 42.269531 C 259.234375 40.625 258.226562 37.773438 257.347656 36.375 C 257.582031 36.820312 257.835938 37.253906 258.054688 37.703125 L 258.660156 39.070312 L 258.960938 39.753906 C 259.054688 39.988281 259.128906 40.222656 259.214844 40.457031 L 259.707031 41.859375 C 259.65625 41.546875 259.59375 41.195312 259.519531 40.820312 C 259.40625 40.464844 259.289062 40.113281 259.175781 39.757812 C 259.03125 39.40625 258.890625 39.058594 258.742188 38.707031 C 258.59375 38.359375 258.445312 38.007812 258.292969 37.652344 C 258.140625 37.296875 257.9375 36.960938 257.757812 36.613281 L 258.230469 37.496094 L 258.636719 38.414062 C 258.894531 39.027344 259.207031 39.625 259.40625 40.257812 C 259.316406 39.765625 259.144531 39.25 258.972656 38.699219 C 258.785156 38.15625 258.628906 37.558594 258.367188 36.96875 C 257.402344 34.746094 256.109375 32.675781 254.789062 30.957031 C 254.085938 30.128906 253.441406 29.332031 252.75 28.71875 C 252.417969 28.402344 252.101562 28.101562 251.796875 27.832031 C 251.476562 27.582031 251.175781 27.355469 250.898438 27.152344 C 250.445312 26.816406 249.992188 26.476562 249.503906 26.199219 C 249.019531 25.90625 248.542969 25.597656 248.046875 25.332031 L 246.535156 24.582031 C 246.027344 24.335938 245.496094 24.15625 244.976562 23.945312 C 242.875 23.167969 240.6875 22.601562 238.480469 22.382812 C 236.277344 22.148438 234.0625 22.140625 231.882812 22.375 C 229.710938 22.628906 227.570312 23.085938 225.488281 23.734375 C 223.421875 24.414062 221.417969 25.277344 219.5 26.308594 C 217.597656 27.371094 215.792969 28.609375 214.101562 30 C 213.285156 30.730469 212.449219 31.441406 211.699219 32.253906 C 211.316406 32.644531 210.925781 33.035156 210.578125 33.464844 L 209.554688 34.675781 C 209.5 34.734375 209.484375 34.753906 209.464844 34.777344 C 209.445312 34.730469 209.441406 34.707031 209.410156 34.660156 L 209.40625 34.652344 L 209.40625 34.648438 L 209.347656 34.582031 L 209.226562 34.433594 L 208.730469 33.839844 C 208.390625 33.449219 208.082031 33.03125 207.714844 32.671875 L 206.644531 31.558594 C 206.289062 31.1875 205.894531 30.863281 205.515625 30.511719 " fill-opacity="1" fill-rule="nonzero"/></g></svg>