<svg xmlns="http://www.w3.org/2000/svg" xmlns:xlink="http://www.w3.org/1999/xlink" width="500" zoomAndPan="magnify" viewBox="0 0 375 374.999991" height="500" preserveAspectRatio="xMidYMid meet" version="1.0"><defs><clipPath id="360db04074"><path d="M 121 15.191406 L 373 15.191406 L 373 227 L 121 227 Z M 121 15.191406 " clip-rule="nonzero"/></clipPath></defs><path fill="#000000" d="M 9.238281 319.222656 C 7.175781 319.222656 5.160156 318.269531 3.871094 316.464844 C 1.753906 313.503906 2.425781 309.382812 5.394531 307.269531 L 50.679688 274.988281 C 56.433594 266.5625 94.339844 213.695312 134.75 213.695312 C 169.019531 213.695312 193.222656 236.292969 198.175781 241.289062 L 234.585938 259.476562 C 241.449219 257.804688 261.007812 253.269531 273.472656 253.269531 C 293.417969 253.269531 299.304688 270.246094 299.5625 270.96875 C 300.515625 273.828125 299.40625 276.972656 296.851562 278.621094 C 292.464844 281.429688 253.371094 306.03125 233.835938 306.03125 C 219.128906 306.03125 182.925781 293.871094 178.847656 292.507812 C 175.417969 291.320312 173.558594 287.585938 174.746094 284.132812 C 175.90625 280.679688 179.648438 278.828125 183.132812 280.011719 C 193.636719 283.566406 223.230469 292.839844 233.835938 292.839844 C 244.367188 292.839844 268.339844 280.5 284.3125 270.867188 C 282.246094 268.675781 278.839844 266.460938 273.472656 266.460938 C 260.15625 266.460938 235.746094 272.773438 235.515625 272.847656 C 233.96875 273.261719 232.316406 273.082031 230.871094 272.359375 L 191.234375 252.574219 C 190.539062 252.214844 189.867188 251.722656 189.324219 251.132812 C 189.121094 250.898438 166.515625 226.886719 134.75 226.886719 C 98.804688 226.886719 61.363281 282.714844 61 283.285156 C 60.535156 283.953125 59.96875 284.546875 59.324219 285.035156 L 13.082031 318.011719 C 11.921875 318.835938 10.578125 319.222656 9.238281 319.222656 " fill-opacity="1" fill-rule="nonzero"/><path fill="#000000" d="M 101.71875 358.796875 C 100.558594 358.796875 99.398438 358.484375 98.339844 357.867188 C 95.21875 356.011719 94.1875 351.96875 96.042969 348.851562 C 96.921875 347.355469 117.847656 312.628906 147.960938 312.628906 C 158.386719 312.628906 174.230469 315.640625 191.027344 318.835938 C 209.089844 322.261719 227.773438 325.816406 240.445312 325.816406 C 252.648438 325.816406 292.515625 306.675781 315.507812 294.207031 L 356.433594 247.523438 C 355.351562 247.035156 354.085938 246.675781 352.742188 246.675781 C 345.597656 246.675781 332.460938 256.359375 321.933594 264.117188 C 308.851562 273.75 300.488281 279.652344 293.289062 279.652344 C 289.652344 279.652344 286.683594 276.6875 286.683594 273.054688 C 286.683594 269.421875 289.652344 266.460938 293.289062 266.460938 C 296.566406 266.410156 307.121094 258.652344 314.089844 253.5 C 327.429688 243.660156 341.261719 233.484375 352.742188 233.484375 C 363.605469 233.484375 370.394531 241.648438 371.140625 242.578125 C 373.101562 245.078125 373.027344 248.632812 370.933594 251.027344 L 324.695312 303.789062 C 324.179688 304.359375 323.558594 304.847656 322.863281 305.234375 C 316.539062 308.6875 260.289062 339.007812 240.445312 339.007812 C 226.507812 339.007812 207.207031 335.351562 188.550781 331.796875 C 172.398438 328.730469 157.121094 325.816406 147.960938 325.816406 C 125.410156 325.816406 107.578125 355.265625 107.398438 355.574219 C 106.160156 357.636719 103.964844 358.796875 101.71875 358.796875 " fill-opacity="1" fill-rule="nonzero"/><path fill="#000000" d="M 293.289062 276.585938 C 292.234375 276.585938 291.148438 276.328125 290.140625 275.785156 C 286.941406 274.058594 285.730469 270.042969 287.484375 266.847656 L 307.300781 230.339844 C 318.941406 212.769531 326.085938 207.101562 346.136719 207.101562 C 348.125 207.101562 349.984375 208.003906 351.246094 209.523438 C 352.511719 211.042969 353 213.054688 352.613281 214.984375 L 346.523438 245.335938 C 345.828125 248.890625 342.34375 251.207031 338.757812 250.511719 C 335.195312 249.792969 332.875 246.3125 333.570312 242.730469 L 338.007812 220.730469 C 329.957031 221.839844 326.242188 225.625 318.628906 237.117188 L 299.097656 273.132812 C 297.910156 275.347656 295.613281 276.585938 293.289062 276.585938 " fill-opacity="1" fill-rule="nonzero"/><g clip-path="url(#360db04074)"><path fill="#000000" d="M 180.992188 29.027344 C 158.566406 29.027344 134.75 47.214844 134.75 80.886719 C 134.75 120.355469 182.796875 176.597656 247.050781 212.742188 C 311.277344 176.597656 359.347656 120.355469 359.347656 80.886719 C 359.347656 47.214844 335.53125 29.027344 313.109375 29.027344 C 285.472656 29.027344 262.738281 59.324219 253.320312 87.484375 C 252.417969 90.164062 249.886719 91.992188 247.050781 91.992188 C 244.210938 91.992188 241.683594 90.164062 240.777344 87.484375 C 231.359375 59.324219 208.601562 29.027344 180.992188 29.027344 Z M 247.050781 226.886719 C 245.964844 226.886719 244.855469 226.628906 243.875 226.089844 C 172.992188 187.238281 121.539062 126.179688 121.539062 80.886719 C 121.539062 38.636719 152.167969 15.835938 180.992188 15.835938 C 210.046875 15.835938 233.65625 40.078125 247.050781 67.902344 C 260.441406 40.078125 284.027344 15.835938 313.109375 15.835938 C 341.929688 15.835938 372.5625 38.636719 372.5625 80.886719 C 372.5625 126.179688 321.109375 187.238281 250.222656 226.089844 C 249.242188 226.628906 248.132812 226.886719 247.050781 226.886719 " fill-opacity="1" fill-rule="nonzero"/></g></svg>