<svg xmlns="http://www.w3.org/2000/svg" xmlns:xlink="http://www.w3.org/1999/xlink" width="500" zoomAndPan="magnify" viewBox="0 0 375 374.999991" height="500" preserveAspectRatio="xMidYMid meet" version="1.0"><defs><clipPath id="945e73e7d6"><path d="M 265 11.945312 L 364.445312 11.945312 L 364.445312 112 L 265 112 Z M 265 11.945312 " clip-rule="nonzero"/></clipPath><clipPath id="5f2360cf52"><path d="M 265 138 L 364.445312 138 L 364.445312 238 L 265 238 Z M 265 138 " clip-rule="nonzero"/></clipPath><clipPath id="10af47663c"><path d="M 11.945312 138 L 112 138 L 112 238 L 11.945312 238 Z M 11.945312 138 " clip-rule="nonzero"/></clipPath><clipPath id="ed0f00011f"><path d="M 11.945312 265 L 112 265 L 112 364.445312 L 11.945312 364.445312 Z M 11.945312 265 " clip-rule="nonzero"/></clipPath><clipPath id="f60919b980"><path d="M 11.945312 11.945312 L 112 11.945312 L 112 112 L 11.945312 112 Z M 11.945312 11.945312 " clip-rule="nonzero"/></clipPath><clipPath id="2576f588b3"><path d="M 138 11.945312 L 238 11.945312 L 238 112 L 138 112 Z M 138 11.945312 " clip-rule="nonzero"/></clipPath><clipPath id="e74bd73323"><path d="M 138 265 L 238 265 L 238 364.445312 L 138 364.445312 Z M 138 265 " clip-rule="nonzero"/></clipPath><clipPath id="a973b6bf4e"><path d="M 265 265 L 364.445312 265 L 364.445312 364.445312 L 265 364.445312 Z M 265 265 " clip-rule="nonzero"/></clipPath><clipPath id="34f70ff0b1"><path d="M 46 30.671875 L 76 30.671875 L 76 62 L 46 62 Z M 46 30.671875 " clip-rule="nonzero"/></clipPath><clipPath id="6b498ac7b0"><path d="M 34.289062 61 L 88 61 L 88 89.921875 L 34.289062 89.921875 Z M 34.289062 61 " clip-rule="nonzero"/></clipPath><clipPath id="b06a89d2ca"><path d="M 163 39.140625 L 184 39.140625 L 184 59 L 163 59 Z M 163 39.140625 " clip-rule="nonzero"/></clipPath><clipPath id="553803686f"><path d="M 155.675781 63 L 188 63 L 188 77 L 155.675781 77 Z M 155.675781 63 " clip-rule="nonzero"/></clipPath><clipPath id="5e2be0a505"><path d="M 183 68 L 219.425781 68 L 219.425781 81.140625 L 183 81.140625 Z M 183 68 " clip-rule="nonzero"/></clipPath><clipPath id="8fa9ae70b2"><path d="M 286.824219 33.636719 L 348.324219 33.636719 L 348.324219 86.886719 L 286.824219 86.886719 Z M 286.824219 33.636719 " clip-rule="nonzero"/></clipPath><clipPath id="cd9cb2457f"><path d="M 34.289062 198 L 51 198 L 51 215.398438 L 34.289062 215.398438 Z M 34.289062 198 " clip-rule="nonzero"/></clipPath><clipPath id="e07ea4ff44"><path d="M 53 182 L 70 182 L 70 215.398438 L 53 215.398438 Z M 53 182 " clip-rule="nonzero"/></clipPath><clipPath id="e823b1a138"><path d="M 71 190 L 88 190 L 88 215.398438 L 71 215.398438 Z M 71 190 " clip-rule="nonzero"/></clipPath><clipPath id="c614c863b1"><path d="M 53 161.398438 L 70 161.398438 L 70 178 L 53 178 Z M 53 161.398438 " clip-rule="nonzero"/></clipPath><clipPath id="2fb0c5e528"><path d="M 164.535156 160.71875 L 219.285156 160.71875 L 219.285156 213.96875 L 164.535156 213.96875 Z M 164.535156 160.71875 " clip-rule="nonzero"/></clipPath><clipPath id="706015b13e"><path d="M 34.289062 287.113281 L 87.957031 287.113281 L 87.957031 340.820312 L 34.289062 340.820312 Z M 34.289062 287.113281 " clip-rule="nonzero"/></clipPath></defs><g clip-path="url(#945e73e7d6)"><path fill="#040606" d="M 364.445312 50.5 L 364.445312 72.53125 C 364.445312 93.78125 347.171875 111.085938 325.890625 111.085938 L 303.859375 111.085938 C 282.578125 111.085938 265.304688 93.78125 265.304688 72.53125 L 265.304688 50.5 C 265.304688 29.25 282.578125 11.945312 303.859375 11.945312 L 325.890625 11.945312 C 347.171875 11.945312 364.445312 29.25 364.445312 50.5 " fill-opacity="1" fill-rule="nonzero"/></g><g clip-path="url(#5f2360cf52)"><path fill="#040606" d="M 364.445312 177.179688 L 364.445312 199.210938 C 364.445312 220.492188 347.171875 237.765625 325.890625 237.765625 L 303.859375 237.765625 C 282.578125 237.765625 265.304688 220.492188 265.304688 199.210938 L 265.304688 177.179688 C 265.304688 155.929688 282.578125 138.625 303.859375 138.625 L 325.890625 138.625 C 347.171875 138.625 364.445312 155.929688 364.445312 177.179688 " fill-opacity="1" fill-rule="nonzero"/></g><g clip-path="url(#10af47663c)"><path fill="#040606" d="M 111.085938 177.179688 L 111.085938 199.210938 C 111.085938 220.492188 93.78125 237.765625 72.53125 237.765625 L 50.5 237.765625 C 29.25 237.765625 11.945312 220.492188 11.945312 199.210938 L 11.945312 177.179688 C 11.945312 155.898438 29.25 138.625 50.5 138.625 L 72.53125 138.625 C 93.78125 138.625 111.085938 155.929688 111.085938 177.179688 " fill-opacity="1" fill-rule="nonzero"/></g><g clip-path="url(#ed0f00011f)"><path fill="#040606" d="M 111.085938 303.859375 L 111.085938 325.890625 C 111.085938 347.171875 93.78125 364.445312 72.53125 364.445312 L 50.5 364.445312 C 29.25 364.445312 11.945312 347.171875 11.945312 325.890625 L 11.945312 303.859375 C 11.945312 282.578125 29.25 265.304688 50.5 265.304688 L 72.53125 265.304688 C 93.78125 265.304688 111.085938 282.578125 111.085938 303.859375 " fill-opacity="1" fill-rule="nonzero"/></g><g clip-path="url(#f60919b980)"><path fill="#040606" d="M 111.085938 50.5 L 111.085938 72.53125 C 111.085938 93.78125 93.78125 111.085938 72.53125 111.085938 L 50.5 111.085938 C 29.25 111.085938 11.945312 93.78125 11.945312 72.53125 L 11.945312 50.5 C 11.945312 29.25 29.25 11.945312 50.5 11.945312 L 72.53125 11.945312 C 93.78125 11.945312 111.085938 29.25 111.085938 50.5 " fill-opacity="1" fill-rule="nonzero"/></g><g clip-path="url(#2576f588b3)"><path fill="#040606" d="M 237.765625 50.5 L 237.765625 72.53125 C 237.765625 93.78125 220.492188 111.085938 199.210938 111.085938 L 177.179688 111.085938 C 155.929688 111.085938 138.625 93.78125 138.625 72.53125 L 138.625 50.5 C 138.625 29.25 155.929688 11.945312 177.179688 11.945312 L 199.210938 11.945312 C 220.492188 11.945312 237.765625 29.25 237.765625 50.5 " fill-opacity="1" fill-rule="nonzero"/></g><g clip-path="url(#e74bd73323)"><path fill="#040606" d="M 237.765625 303.859375 L 237.765625 325.890625 C 237.765625 347.171875 220.492188 364.445312 199.210938 364.445312 L 177.179688 364.445312 C 155.929688 364.445312 138.625 347.171875 138.625 325.890625 L 138.625 303.859375 C 138.625 282.578125 155.929688 265.304688 177.179688 265.304688 L 199.210938 265.304688 C 220.492188 265.304688 237.765625 282.578125 237.765625 303.859375 " fill-opacity="1" fill-rule="nonzero"/></g><path fill="#040606" d="M 237.765625 177.179688 L 237.765625 199.210938 C 237.765625 220.492188 220.492188 237.765625 199.210938 237.765625 L 177.179688 237.765625 C 155.929688 237.765625 138.625 220.492188 138.625 199.210938 L 138.625 177.179688 C 138.625 155.929688 155.929688 138.625 177.179688 138.625 L 199.210938 138.625 C 220.492188 138.625 237.765625 155.929688 237.765625 177.179688 " fill-opacity="1" fill-rule="nonzero"/><g clip-path="url(#a973b6bf4e)"><path fill="#040606" d="M 364.445312 303.859375 L 364.445312 325.890625 C 364.445312 347.171875 347.171875 364.445312 325.890625 364.445312 L 303.859375 364.445312 C 282.578125 364.445312 265.304688 347.171875 265.304688 325.890625 L 265.304688 303.859375 C 265.304688 282.578125 282.578125 265.304688 303.859375 265.304688 L 325.890625 265.304688 C 347.171875 265.304688 364.445312 282.578125 364.445312 303.859375 " fill-opacity="1" fill-rule="nonzero"/></g><g clip-path="url(#34f70ff0b1)"><path fill="#ffffff" d="M 61.140625 61.242188 C 69.03125 61.242188 75.449219 52.867188 75.449219 44.980469 C 75.449219 37.089844 69.03125 30.671875 61.140625 30.671875 C 53.25 30.671875 46.832031 37.089844 46.832031 44.980469 C 46.835938 52.867188 53.253906 61.242188 61.140625 61.242188 Z M 61.140625 61.242188 " fill-opacity="1" fill-rule="nonzero"/></g><g clip-path="url(#6b498ac7b0)"><path fill="#ffffff" d="M 71.882812 61.386719 C 69.105469 63.503906 65.644531 64.761719 61.894531 64.761719 L 60.386719 64.761719 C 56.636719 64.761719 53.175781 63.503906 50.398438 61.386719 C 41.339844 62.851562 34.417969 70.707031 34.417969 80.179688 C 34.417969 85.386719 46.382812 89.605469 61.140625 89.605469 C 75.898438 89.605469 87.863281 85.386719 87.863281 80.179688 C 87.863281 70.707031 80.941406 62.851562 71.882812 61.386719 Z M 71.882812 61.386719 " fill-opacity="1" fill-rule="nonzero"/></g><g clip-path="url(#b06a89d2ca)"><path fill="#ffffff" d="M 173.511719 58.804688 C 178.917969 58.804688 183.316406 54.40625 183.316406 48.996094 C 183.316406 43.589844 178.917969 39.191406 173.511719 39.191406 C 168.101562 39.191406 163.703125 43.589844 163.703125 48.996094 C 163.703125 54.40625 168.101562 58.804688 173.511719 58.804688 Z M 173.511719 58.804688 " fill-opacity="1" fill-rule="nonzero"/></g><g clip-path="url(#553803686f)"><path fill="#ffffff" d="M 187.382812 67.21875 C 185.152344 65.132812 182.167969 63.84375 178.882812 63.84375 L 168.136719 63.84375 C 161.265625 63.84375 155.675781 69.433594 155.675781 76.308594 L 180.414062 76.308594 C 181.574219 72.503906 184.085938 69.296875 187.382812 67.21875 Z M 187.382812 67.21875 " fill-opacity="1" fill-rule="nonzero"/></g><path fill="#ffffff" d="M 201.480469 63.589844 C 206.890625 63.589844 211.289062 59.191406 211.289062 53.78125 C 211.289062 48.375 206.890625 43.976562 201.480469 43.976562 C 196.074219 43.976562 191.675781 48.375 191.675781 53.78125 C 191.675781 59.191406 196.074219 63.589844 201.480469 63.589844 Z M 201.480469 63.589844 " fill-opacity="1" fill-rule="nonzero"/><g clip-path="url(#5e2be0a505)"><path fill="#ffffff" d="M 206.855469 68.628906 L 196.109375 68.628906 C 189.238281 68.628906 183.644531 74.222656 183.644531 81.09375 L 219.320312 81.09375 C 219.320312 74.222656 213.726562 68.628906 206.855469 68.628906 Z M 206.855469 68.628906 " fill-opacity="1" fill-rule="nonzero"/></g><g clip-path="url(#8fa9ae70b2)"><path fill="#ffffff" d="M 347.4375 39.5625 C 346.949219 38.414062 346.253906 37.378906 345.363281 36.492188 C 344.476562 35.605469 343.445312 34.90625 342.292969 34.417969 C 341.101562 33.914062 339.832031 33.660156 338.527344 33.660156 L 313.308594 33.660156 C 312.003906 33.660156 310.738281 33.914062 309.542969 34.417969 C 308.394531 34.90625 307.359375 35.605469 306.472656 36.492188 C 305.585938 37.378906 304.886719 38.414062 304.398438 39.5625 C 303.894531 40.757812 303.640625 42.023438 303.640625 43.328125 L 303.640625 46.269531 L 296.492188 46.269531 C 295.1875 46.269531 293.921875 46.527344 292.730469 47.03125 C 291.578125 47.515625 290.542969 48.214844 289.65625 49.101562 C 288.769531 49.988281 288.074219 51.023438 287.585938 52.175781 C 287.082031 53.367188 286.824219 54.632812 286.824219 55.9375 L 286.824219 68.546875 C 286.824219 70.496094 287.402344 72.375 288.496094 73.980469 C 289.5625 75.546875 291.046875 76.757812 292.789062 77.480469 C 293.523438 77.785156 293.933594 78.570312 293.761719 79.347656 L 292.507812 85.09375 C 292.390625 85.617188 292.621094 86.15625 293.082031 86.4375 C 293.285156 86.5625 293.511719 86.625 293.738281 86.625 C 294.023438 86.625 294.308594 86.527344 294.539062 86.335938 L 301.535156 80.597656 C 303.402344 79.0625 305.765625 78.214844 308.183594 78.214844 L 321.714844 78.214844 C 323.019531 78.214844 324.285156 77.960938 325.480469 77.457031 C 326.628906 76.96875 327.664062 76.273438 328.550781 75.386719 C 329.4375 74.496094 330.136719 73.464844 330.621094 72.3125 C 331.128906 71.121094 331.382812 69.851562 331.382812 68.546875 L 331.382812 66.640625 C 332.132812 67.003906 332.835938 67.453125 333.488281 67.984375 L 340.484375 73.726562 C 340.714844 73.917969 341 74.011719 341.285156 74.011719 C 341.511719 74.011719 341.738281 73.953125 341.941406 73.828125 C 342.398438 73.546875 342.628906 73.007812 342.515625 72.484375 L 341.261719 66.734375 C 341.089844 65.960938 341.5 65.175781 342.234375 64.871094 C 343.976562 64.148438 345.460938 62.9375 346.527344 61.371094 C 347.621094 59.765625 348.195312 57.886719 348.195312 55.9375 L 348.195312 43.328125 C 348.195312 42.023438 347.941406 40.757812 347.4375 39.5625 Z M 328.859375 68.546875 C 328.859375 72.488281 325.65625 75.695312 321.714844 75.695312 L 308.183594 75.695312 C 305.183594 75.695312 302.253906 76.742188 299.933594 78.648438 L 295.746094 82.082031 L 296.226562 79.882812 C 296.65625 77.914062 295.617188 75.925781 293.757812 75.152344 C 291.078125 74.039062 289.347656 71.449219 289.347656 68.546875 L 289.347656 55.9375 C 289.347656 51.996094 292.554688 48.792969 296.492188 48.792969 L 321.714844 48.792969 C 321.777344 48.792969 321.835938 48.792969 321.898438 48.792969 C 324.589844 48.863281 326.917969 50.429688 328.078125 52.6875 C 328.128906 52.789062 328.179688 52.894531 328.230469 53 C 328.347656 53.265625 328.453125 53.535156 328.539062 53.816406 C 328.574219 53.925781 328.605469 54.039062 328.636719 54.15625 C 328.664062 54.269531 328.691406 54.382812 328.714844 54.5 C 328.8125 54.964844 328.859375 55.445312 328.859375 55.9375 Z M 345.675781 55.9375 C 345.675781 58.835938 343.945312 61.429688 341.265625 62.542969 C 339.40625 63.3125 338.367188 65.304688 338.796875 67.273438 L 339.277344 69.472656 L 335.089844 66.035156 C 333.972656 65.117188 332.726562 64.402344 331.382812 63.902344 L 331.382812 55.9375 C 331.382812 54.632812 331.128906 53.367188 330.621094 52.175781 C 330.59375 52.101562 330.5625 52.03125 330.527344 51.960938 C 330.113281 51.035156 329.558594 50.191406 328.875 49.441406 C 328.769531 49.324219 328.664062 49.210938 328.550781 49.101562 C 327.664062 48.214844 326.628906 47.515625 325.480469 47.03125 C 324.285156 46.527344 323.019531 46.269531 321.714844 46.269531 L 306.160156 46.269531 L 306.160156 43.328125 C 306.160156 39.386719 309.367188 36.179688 313.308594 36.179688 L 338.527344 36.179688 C 342.46875 36.179688 345.675781 39.386719 345.675781 43.328125 Z M 345.675781 55.9375 " fill-opacity="1" fill-rule="nonzero"/></g><path fill="#ffffff" d="M 321.714844 54.675781 L 296.492188 54.675781 C 295.796875 54.675781 295.234375 55.242188 295.234375 55.9375 C 295.234375 56.632812 295.796875 57.199219 296.492188 57.199219 L 321.714844 57.199219 C 322.410156 57.199219 322.976562 56.632812 322.976562 55.9375 C 322.976562 55.242188 322.410156 54.675781 321.714844 54.675781 Z M 321.714844 54.675781 " fill-opacity="1" fill-rule="nonzero"/><path fill="#ffffff" d="M 309.105469 63.082031 L 296.492188 63.082031 C 295.796875 63.082031 295.234375 63.648438 295.234375 64.34375 C 295.234375 65.042969 295.796875 65.605469 296.492188 65.605469 L 309.105469 65.605469 C 309.800781 65.605469 310.367188 65.042969 310.367188 64.34375 C 310.367188 63.648438 309.800781 63.082031 309.105469 63.082031 Z M 309.105469 63.082031 " fill-opacity="1" fill-rule="nonzero"/><g clip-path="url(#cd9cb2457f)"><path fill="#ffffff" d="M 47.714844 198.996094 L 36.972656 198.996094 C 36.617188 198.996094 36.273438 199.0625 35.945312 199.199219 C 35.617188 199.335938 35.324219 199.527344 35.074219 199.78125 C 34.820312 200.03125 34.628906 200.324219 34.492188 200.652344 C 34.355469 200.980469 34.289062 201.324219 34.289062 201.679688 L 34.289062 215.105469 L 50.398438 215.105469 L 50.398438 201.679688 C 50.398438 201.324219 50.332031 200.980469 50.195312 200.652344 C 50.058594 200.324219 49.863281 200.03125 49.613281 199.78125 C 49.359375 199.527344 49.070312 199.335938 48.742188 199.199219 C 48.414062 199.0625 48.070312 198.996094 47.714844 198.996094 Z M 47.714844 198.996094 " fill-opacity="1" fill-rule="nonzero"/></g><g clip-path="url(#e07ea4ff44)"><path fill="#ffffff" d="M 66.511719 182.882812 L 55.769531 182.882812 C 55.414062 182.882812 55.070312 182.949219 54.742188 183.085938 C 54.414062 183.222656 54.125 183.417969 53.871094 183.667969 C 53.621094 183.921875 53.425781 184.210938 53.289062 184.539062 C 53.152344 184.867188 53.085938 185.210938 53.085938 185.566406 L 53.085938 215.105469 L 69.195312 215.105469 L 69.195312 185.566406 C 69.195312 185.210938 69.128906 184.867188 68.992188 184.539062 C 68.855469 184.210938 68.664062 183.921875 68.410156 183.667969 C 68.160156 183.417969 67.867188 183.222656 67.539062 183.085938 C 67.210938 182.949219 66.867188 182.882812 66.511719 182.882812 Z M 66.511719 182.882812 " fill-opacity="1" fill-rule="nonzero"/></g><g clip-path="url(#e823b1a138)"><path fill="#ffffff" d="M 85.308594 190.9375 L 74.566406 190.9375 C 74.210938 190.9375 73.867188 191.007812 73.539062 191.140625 C 73.210938 191.277344 72.921875 191.472656 72.667969 191.726562 C 72.417969 191.976562 72.222656 192.265625 72.085938 192.597656 C 71.949219 192.925781 71.882812 193.265625 71.882812 193.625 L 71.882812 215.105469 L 87.996094 215.105469 L 87.996094 193.625 C 87.996094 193.265625 87.925781 192.925781 87.789062 192.597656 C 87.652344 192.265625 87.460938 191.976562 87.207031 191.726562 C 86.957031 191.472656 86.664062 191.277344 86.335938 191.140625 C 86.007812 191.007812 85.664062 190.9375 85.308594 190.9375 Z M 85.308594 190.9375 " fill-opacity="1" fill-rule="nonzero"/></g><g clip-path="url(#c614c863b1)"><path fill="#ffffff" d="M 61.140625 161.398438 L 58.457031 166.769531 L 53.085938 167.554688 L 57.5625 171.246094 L 56.164062 177.511719 L 61.140625 173.933594 L 66.121094 177.511719 L 64.71875 171.246094 L 69.195312 167.554688 L 63.828125 166.769531 Z M 61.140625 161.398438 " fill-opacity="1" fill-rule="nonzero"/></g><g clip-path="url(#2fb0c5e528)"><path fill="#ffffff" d="M 201.902344 197.140625 L 194.191406 201.628906 C 193.964844 201.765625 193.730469 201.871094 193.496094 201.957031 C 193.554688 201.816406 193.605469 201.664062 193.648438 201.507812 C 194.070312 199.933594 193.136719 198.292969 191.527344 197.769531 C 191.488281 197.757812 191.449219 197.75 191.410156 197.742188 C 189.210938 197.34375 187.035156 196.558594 185.285156 195.925781 C 184.671875 195.703125 184.09375 195.496094 183.601562 195.335938 C 181.550781 194.667969 179.71875 195.480469 178.195312 196.363281 L 172.632812 199.582031 L 172.191406 198.804688 C 171.925781 198.335938 171.496094 197.996094 170.972656 197.855469 C 170.453125 197.710938 169.910156 197.777344 169.441406 198.039062 L 167.277344 199.265625 C 166.308594 199.8125 165.96875 201.046875 166.515625 202.015625 L 172.875 213.253906 C 173.140625 213.71875 173.574219 214.058594 174.09375 214.203125 C 174.273438 214.25 174.457031 214.277344 174.636719 214.277344 C 174.980469 214.277344 175.320312 214.1875 175.625 214.015625 L 177.789062 212.789062 C 178.757812 212.242188 179.101562 211.007812 178.550781 210.039062 L 177.992188 209.054688 L 179.058594 208.4375 L 188.851562 211.0625 C 189.414062 211.214844 189.976562 211.289062 190.527344 211.289062 C 191.640625 211.289062 192.714844 210.980469 193.699219 210.375 L 207.691406 201.761719 C 209.054688 200.921875 209.488281 198.8125 208.605469 197.335938 C 208.179688 196.625 206.433594 194.5 201.902344 197.140625 Z M 176.917969 211.253906 L 174.757812 212.476562 C 174.679688 212.523438 174.601562 212.511719 174.566406 212.5 C 174.527344 212.488281 174.457031 212.460938 174.414062 212.382812 L 168.054688 201.144531 C 167.984375 201.027344 168.03125 200.871094 168.148438 200.800781 L 170.3125 199.578125 C 170.355469 199.554688 170.398438 199.546875 170.433594 199.546875 C 170.460938 199.546875 170.484375 199.550781 170.503906 199.554688 C 170.539062 199.566406 170.609375 199.59375 170.65625 199.671875 L 177.015625 210.910156 C 177.082031 211.027344 177.039062 211.1875 176.917969 211.253906 Z M 206.765625 200.257812 L 192.773438 208.871094 C 191.710938 209.523438 190.546875 209.6875 189.3125 209.355469 L 179.164062 206.636719 C 178.9375 206.578125 178.695312 206.609375 178.492188 206.726562 L 177.125 207.515625 L 173.503906 201.121094 L 179.082031 197.890625 C 180.328125 197.171875 181.671875 196.566406 183.054688 197.015625 C 183.519531 197.164062 184.058594 197.359375 184.683594 197.585938 C 186.480469 198.234375 188.710938 199.042969 191.03125 199.46875 C 191.730469 199.71875 192.121094 200.390625 191.941406 201.050781 C 191.753906 201.753906 191.230469 202.058594 190.382812 201.960938 C 189.257812 201.730469 188.1875 201.425781 187.050781 201.101562 C 186.511719 200.945312 185.949219 200.785156 185.371094 200.632812 C 184.902344 200.503906 184.417969 200.785156 184.289062 201.257812 C 184.164062 201.726562 184.445312 202.210938 184.914062 202.335938 C 185.476562 202.488281 186.03125 202.648438 186.566406 202.800781 C 187.746094 203.136719 188.863281 203.457031 190.066406 203.703125 C 190.074219 203.703125 190.097656 203.707031 190.101562 203.707031 L 191.0625 203.863281 C 192.542969 204.101562 193.855469 203.871094 195.082031 203.15625 L 202.792969 198.664062 C 204.875 197.453125 206.519531 197.292969 207.089844 198.246094 C 207.476562 198.886719 207.308594 199.921875 206.765625 200.257812 Z M 170.839844 201.574219 C 170.902344 201.996094 170.609375 202.390625 170.1875 202.449219 C 169.765625 202.511719 169.375 202.21875 169.3125 201.796875 C 169.25 201.375 169.542969 200.984375 169.964844 200.921875 C 170.386719 200.859375 170.78125 201.152344 170.839844 201.574219 Z M 182.691406 171.300781 C 182.96875 171.84375 183.121094 172.140625 183.15625 172.347656 C 183.195312 172.554688 183.152344 172.886719 183.078125 173.488281 C 183.054688 173.652344 183.035156 173.835938 183.007812 174.039062 C 182.863281 175.265625 183.527344 176.417969 184.664062 176.90625 C 184.792969 176.960938 184.914062 177.011719 185.023438 177.058594 L 182.738281 181.96875 C 182.597656 182.265625 182.636719 182.617188 182.835938 182.878906 C 183.039062 183.136719 183.367188 183.265625 183.691406 183.210938 L 186.152344 182.78125 L 187.410156 184.941406 C 187.570312 185.214844 187.859375 185.378906 188.171875 185.378906 C 188.1875 185.378906 188.199219 185.378906 188.214844 185.378906 C 188.542969 185.363281 188.835938 185.167969 188.972656 184.871094 L 191.320312 179.828125 C 191.597656 179.75 191.789062 179.703125 191.925781 179.703125 C 192.136719 179.703125 192.457031 179.804688 193.035156 179.984375 C 193.070312 179.992188 193.105469 180.003906 193.136719 180.015625 L 194.808594 183.890625 C 194.9375 184.191406 195.222656 184.394531 195.550781 184.417969 C 195.574219 184.421875 195.597656 184.421875 195.617188 184.421875 C 195.921875 184.421875 196.207031 184.265625 196.367188 184.003906 L 197.6875 181.878906 L 200.136719 182.382812 C 200.457031 182.449219 200.789062 182.328125 201 182.074219 C 201.207031 181.820312 201.253906 181.46875 201.125 181.167969 L 199.269531 176.863281 C 200.355469 176.359375 200.984375 175.234375 200.84375 174.039062 C 200.816406 173.835938 200.796875 173.652344 200.773438 173.488281 C 200.699219 172.886719 200.65625 172.554688 200.695312 172.347656 C 200.730469 172.140625 200.882812 171.84375 201.160156 171.300781 C 201.234375 171.15625 201.320312 170.992188 201.410156 170.808594 C 201.96875 169.707031 201.738281 168.394531 200.835938 167.550781 C 200.6875 167.410156 200.554688 167.285156 200.433594 167.171875 C 199.988281 166.757812 199.742188 166.53125 199.636719 166.351562 C 199.53125 166.167969 199.457031 165.839844 199.320312 165.25 C 199.285156 165.089844 199.242188 164.910156 199.195312 164.710938 C 198.914062 163.507812 197.898438 162.652344 196.664062 162.582031 C 196.457031 162.570312 196.273438 162.5625 196.109375 162.554688 C 195.503906 162.523438 195.167969 162.507812 194.972656 162.433594 C 194.773438 162.363281 194.507812 162.160156 194.023438 161.792969 C 193.890625 161.695312 193.746094 161.582031 193.578125 161.460938 C 192.589844 160.71875 191.261719 160.71875 190.269531 161.460938 C 190.105469 161.585938 189.960938 161.695312 189.828125 161.792969 C 189.34375 162.160156 189.078125 162.363281 188.878906 162.433594 C 188.683594 162.507812 188.347656 162.523438 187.742188 162.554688 C 187.578125 162.5625 187.394531 162.570312 187.1875 162.582031 C 185.953125 162.652344 184.9375 163.507812 184.652344 164.710938 C 184.605469 164.910156 184.566406 165.089844 184.53125 165.25 C 184.394531 165.839844 184.320312 166.167969 184.214844 166.351562 C 184.109375 166.53125 183.863281 166.757812 183.417969 167.171875 C 183.296875 167.285156 183.164062 167.410156 183.015625 167.550781 C 182.113281 168.394531 181.882812 169.707031 182.4375 170.808594 C 182.53125 170.992188 182.617188 171.15625 182.691406 171.300781 Z M 188.085938 182.589844 L 187.371094 181.359375 C 187.1875 181.039062 186.820312 180.871094 186.457031 180.933594 L 185.054688 181.179688 L 186.527344 178.015625 C 186.621094 178.15625 186.734375 178.332031 186.875 178.550781 C 186.964844 178.6875 187.0625 178.839844 187.175781 179.011719 C 187.640625 179.726562 188.378906 180.160156 189.179688 180.25 Z M 197.4375 180.027344 C 197.074219 179.953125 196.707031 180.113281 196.511719 180.425781 L 195.757812 181.636719 L 195.125 180.160156 C 195.746094 179.984375 196.300781 179.589844 196.675781 179.011719 C 196.789062 178.839844 196.886719 178.6875 196.976562 178.550781 C 197.304688 178.039062 197.488281 177.757812 197.648438 177.621094 C 197.65625 177.617188 197.660156 177.613281 197.667969 177.609375 L 198.832031 180.3125 Z M 184.222656 168.839844 C 184.371094 168.699219 184.5 168.578125 184.621094 168.46875 C 185.800781 167.371094 185.894531 167.214844 186.253906 165.640625 C 186.289062 165.484375 186.328125 165.308594 186.375 165.113281 C 186.476562 164.671875 186.835938 164.371094 187.289062 164.347656 C 187.488281 164.335938 187.667969 164.324219 187.828125 164.316406 C 189.441406 164.238281 189.613281 164.175781 190.894531 163.203125 C 191.023438 163.105469 191.167969 162.996094 191.328125 162.875 C 191.691406 162.601562 192.160156 162.601562 192.523438 162.875 C 192.683594 162.996094 192.828125 163.105469 192.957031 163.203125 C 194.242188 164.175781 194.414062 164.238281 196.023438 164.316406 C 196.183594 164.324219 196.363281 164.335938 196.566406 164.347656 C 197.015625 164.371094 197.375 164.671875 197.476562 165.113281 C 197.523438 165.308594 197.5625 165.484375 197.601562 165.640625 C 197.957031 167.214844 198.050781 167.371094 199.230469 168.46875 C 199.351562 168.578125 199.480469 168.699219 199.628906 168.839844 C 199.957031 169.148438 200.039062 169.609375 199.835938 170.011719 C 199.746094 170.191406 199.664062 170.351562 199.589844 170.496094 C 198.855469 171.929688 198.820312 172.109375 199.023438 173.710938 C 199.042969 173.871094 199.066406 174.046875 199.089844 174.25 C 199.144531 174.699219 198.910156 175.101562 198.492188 175.28125 C 198.308594 175.359375 198.140625 175.429688 197.992188 175.492188 C 196.507812 176.121094 196.367188 176.238281 195.492188 177.589844 C 195.40625 177.726562 195.308594 177.878906 195.195312 178.046875 C 194.949219 178.425781 194.511719 178.585938 194.078125 178.453125 C 193.882812 178.394531 193.710938 178.34375 193.558594 178.296875 C 192.789062 178.058594 192.355469 177.9375 191.925781 177.9375 C 191.496094 177.9375 191.0625 178.058594 190.292969 178.296875 C 190.140625 178.34375 189.96875 178.394531 189.773438 178.453125 C 189.34375 178.585938 188.902344 178.425781 188.65625 178.046875 C 188.542969 177.878906 188.445312 177.726562 188.359375 177.589844 C 187.484375 176.238281 187.34375 176.121094 185.859375 175.492188 C 185.710938 175.429688 185.542969 175.359375 185.359375 175.28125 C 184.941406 175.101562 184.710938 174.699219 184.761719 174.25 C 184.785156 174.046875 184.808594 173.871094 184.828125 173.710938 C 185.03125 172.109375 185 171.929688 184.261719 170.496094 C 184.1875 170.351562 184.105469 170.191406 184.015625 170.011719 C 183.8125 169.609375 183.894531 169.148438 184.222656 168.839844 Z M 191.925781 176.722656 C 195.308594 176.722656 198.0625 173.96875 198.0625 170.585938 C 198.0625 167.199219 195.308594 164.445312 191.925781 164.445312 C 188.542969 164.445312 185.789062 167.199219 185.789062 170.585938 C 185.789062 173.96875 188.542969 176.722656 191.925781 176.722656 Z M 191.925781 166.214844 C 194.335938 166.214844 196.296875 168.175781 196.296875 170.585938 C 196.296875 172.996094 194.335938 174.957031 191.925781 174.957031 C 189.515625 174.957031 187.554688 172.996094 187.554688 170.585938 C 187.554688 168.175781 189.515625 166.214844 191.925781 166.214844 Z M 190.273438 172.796875 L 188.832031 171.355469 C 188.484375 171.011719 188.484375 170.453125 188.832031 170.109375 C 189.175781 169.761719 189.734375 169.761719 190.078125 170.109375 L 190.925781 170.953125 L 193.804688 168.34375 C 194.164062 168.015625 194.722656 168.042969 195.050781 168.402344 C 195.378906 168.765625 195.351562 169.324219 194.988281 169.652344 L 191.488281 172.828125 C 191.320312 172.980469 191.109375 173.054688 190.898438 173.054688 C 190.671875 173.054688 190.445312 172.96875 190.273438 172.796875 Z M 211.398438 169.65625 C 207.042969 169.65625 203.496094 173.199219 203.496094 177.558594 C 203.496094 181.914062 207.042969 185.457031 211.398438 185.457031 C 215.753906 185.457031 219.300781 181.914062 219.300781 177.558594 C 219.300781 173.199219 215.753906 169.65625 211.398438 169.65625 Z M 211.398438 183.691406 C 208.015625 183.691406 205.265625 180.941406 205.265625 177.558594 C 205.265625 174.175781 208.015625 171.421875 211.398438 171.421875 C 214.78125 171.421875 217.535156 174.175781 217.535156 177.558594 C 217.535156 180.941406 214.78125 183.691406 211.398438 183.691406 Z M 214.515625 179.09375 C 214.59375 179.757812 214.414062 180.367188 213.992188 180.855469 C 213.59375 181.316406 212.984375 181.648438 212.28125 181.796875 L 212.28125 182 C 212.28125 182.488281 211.886719 182.882812 211.398438 182.882812 C 210.910156 182.882812 210.515625 182.488281 210.515625 182 L 210.515625 181.785156 C 209.402344 181.511719 208.558594 180.730469 208.289062 179.660156 C 208.171875 179.1875 208.460938 178.707031 208.933594 178.589844 C 209.40625 178.472656 209.886719 178.757812 210.003906 179.230469 C 210.171875 179.910156 210.898438 180.140625 211.46875 180.125 C 211.964844 180.113281 212.453125 179.9375 212.65625 179.703125 C 212.722656 179.625 212.785156 179.519531 212.761719 179.308594 C 212.738281 179.105469 212.679688 178.636719 211.261719 178.402344 C 208.945312 178.023438 208.535156 176.703125 208.5 175.949219 C 208.441406 174.726562 209.246094 173.699219 210.515625 173.347656 L 210.515625 173.117188 C 210.515625 172.628906 210.910156 172.234375 211.398438 172.234375 C 211.886719 172.234375 212.28125 172.628906 212.28125 173.117188 L 212.28125 173.339844 C 213.101562 173.558594 213.867188 174.105469 214.277344 175.082031 C 214.46875 175.535156 214.257812 176.050781 213.808594 176.238281 C 213.355469 176.429688 212.839844 176.21875 212.652344 175.769531 C 212.320312 174.976562 211.496094 174.933594 211.0625 175.03125 C 210.867188 175.074219 210.234375 175.265625 210.261719 175.863281 C 210.269531 176.027344 210.292969 176.453125 211.546875 176.660156 C 213.355469 176.957031 214.355469 177.777344 214.515625 179.09375 Z M 172.453125 185.457031 C 176.808594 185.457031 180.355469 181.914062 180.355469 177.558594 C 180.355469 173.199219 176.808594 169.65625 172.453125 169.65625 C 168.097656 169.65625 164.550781 173.199219 164.550781 177.558594 C 164.550781 181.914062 168.097656 185.457031 172.453125 185.457031 Z M 172.453125 171.421875 C 175.835938 171.421875 178.589844 174.175781 178.589844 177.558594 C 178.589844 180.941406 175.835938 183.691406 172.453125 183.691406 C 169.070312 183.691406 166.316406 180.941406 166.316406 177.558594 C 166.316406 174.175781 169.070312 171.421875 172.453125 171.421875 Z M 168.972656 180.601562 C 168.851562 181.039062 169.011719 181.492188 169.378906 181.757812 C 169.746094 182.027344 170.226562 182.039062 170.605469 181.789062 L 172.453125 180.578125 L 174.300781 181.789062 C 174.484375 181.910156 174.6875 181.96875 174.894531 181.96875 C 175.117188 181.96875 175.339844 181.898438 175.527344 181.757812 C 175.894531 181.492188 176.054688 181.039062 175.933594 180.601562 L 175.355469 178.472656 L 177.078125 177.085938 C 177.429688 176.804688 177.566406 176.34375 177.429688 175.910156 C 177.289062 175.480469 176.90625 175.1875 176.453125 175.167969 L 174.246094 175.058594 L 173.464844 172.992188 C 173.300781 172.570312 172.90625 172.296875 172.453125 172.296875 C 172 172.296875 171.605469 172.570312 171.445312 172.992188 L 170.660156 175.058594 L 168.453125 175.167969 C 168 175.1875 167.617188 175.480469 167.480469 175.910156 C 167.339844 176.34375 167.476562 176.804688 167.828125 177.085938 L 169.550781 178.472656 Z M 171.195312 176.800781 C 171.621094 176.78125 172 176.507812 172.152344 176.105469 L 172.453125 175.308594 L 172.753906 176.105469 C 172.90625 176.507812 173.285156 176.78125 173.710938 176.800781 L 174.5625 176.84375 L 173.898438 177.375 C 173.5625 177.644531 173.421875 178.085938 173.535156 178.5 L 173.757812 179.320312 L 173.042969 178.855469 C 172.863281 178.738281 172.660156 178.679688 172.453125 178.679688 C 172.246094 178.679688 172.042969 178.738281 171.863281 178.855469 L 171.148438 179.320312 L 171.375 178.5 C 171.484375 178.085938 171.34375 177.644531 171.007812 177.375 L 170.34375 176.84375 Z M 182.65625 191.699219 C 183.003906 192.042969 183.003906 192.601562 182.65625 192.945312 C 182.484375 193.117188 182.257812 193.207031 182.03125 193.207031 C 181.808594 193.207031 181.582031 193.117188 181.410156 192.945312 L 177.214844 188.753906 C 176.871094 188.410156 176.871094 187.851562 177.214844 187.503906 C 177.5625 187.160156 178.121094 187.160156 178.464844 187.503906 Z M 191.925781 186.378906 C 192.414062 186.378906 192.808594 186.773438 192.808594 187.261719 L 192.808594 193.191406 C 192.808594 193.679688 192.414062 194.074219 191.925781 194.074219 C 191.4375 194.074219 191.042969 193.679688 191.042969 193.191406 L 191.042969 187.261719 C 191.042969 186.773438 191.4375 186.378906 191.925781 186.378906 Z M 201.195312 191.699219 L 205.386719 187.503906 C 205.730469 187.160156 206.292969 187.160156 206.636719 187.503906 C 206.980469 187.851562 206.980469 188.410156 206.636719 188.753906 L 202.445312 192.945312 C 202.269531 193.117188 202.046875 193.207031 201.820312 193.207031 C 201.59375 193.207031 201.367188 193.117188 201.195312 192.945312 C 200.851562 192.601562 200.851562 192.042969 201.195312 191.699219 Z M 201.195312 191.699219 " fill-opacity="1" fill-rule="nonzero"/></g><g clip-path="url(#706015b13e)"><path fill="#ffffff" d="M 60.953125 303.753906 C 66.539062 303.648438 71.144531 308.09375 71.25 313.675781 C 71.25 313.777344 71.25 313.871094 71.25 313.972656 C 71.3125 319.554688 66.839844 324.132812 61.253906 324.195312 C 55.671875 324.253906 51.09375 319.785156 51.03125 314.199219 C 51.03125 314.125 51.03125 314.046875 51.03125 313.972656 C 50.972656 308.417969 55.398438 303.851562 60.953125 303.753906 Z M 62.039062 287.136719 C 60.53125 287.085938 59.019531 287.160156 57.527344 287.359375 C 56.996094 287.433594 56.5625 287.804688 56.40625 288.308594 L 54.917969 293.152344 C 54.789062 293.5625 54.476562 293.894531 54.070312 294.035156 C 53.371094 294.289062 52.683594 294.570312 52.011719 294.890625 C 51.621094 295.082031 51.160156 295.070312 50.78125 294.867188 L 46.308594 292.492188 C 45.835938 292.242188 45.261719 292.289062 44.84375 292.613281 C 42.925781 294.070312 41.21875 295.78125 39.761719 297.691406 C 39.4375 298.117188 39.390625 298.683594 39.636719 299.15625 L 42.015625 303.632812 C 42.222656 304.011719 42.242188 304.46875 42.0625 304.859375 C 41.738281 305.53125 41.453125 306.21875 41.207031 306.917969 C 41.0625 307.328125 40.734375 307.644531 40.320312 307.769531 L 35.480469 309.261719 C 34.96875 309.414062 34.597656 309.851562 34.53125 310.375 C 34.207031 312.765625 34.207031 315.175781 34.53125 317.566406 C 34.597656 318.089844 34.96875 318.527344 35.480469 318.683594 L 40.320312 320.175781 C 40.734375 320.296875 41.0625 320.613281 41.207031 321.023438 C 41.453125 321.722656 41.738281 322.410156 42.0625 323.082031 C 42.242188 323.472656 42.222656 323.929688 42.015625 324.308594 L 39.636719 328.785156 C 39.390625 329.253906 39.4375 329.824219 39.761719 330.25 C 41.21875 332.160156 42.925781 333.867188 44.84375 335.328125 C 45.261719 335.652344 45.835938 335.695312 46.308594 335.449219 L 50.78125 333.078125 C 51.160156 332.871094 51.621094 332.863281 52.011719 333.046875 C 52.683594 333.367188 53.371094 333.652344 54.070312 333.902344 C 54.476562 334.042969 54.789062 334.375 54.917969 334.785156 L 56.40625 339.628906 C 56.5625 340.136719 56.996094 340.511719 57.527344 340.578125 C 59.910156 340.902344 62.328125 340.902344 64.710938 340.578125 C 65.238281 340.511719 65.675781 340.136719 65.832031 339.628906 L 67.320312 334.785156 C 67.449219 334.375 67.765625 334.042969 68.167969 333.902344 C 68.871094 333.652344 69.5625 333.367188 70.230469 333.046875 C 70.621094 332.863281 71.074219 332.871094 71.453125 333.078125 L 75.929688 335.449219 C 76.402344 335.695312 76.976562 335.652344 77.394531 335.328125 C 79.3125 333.867188 81.019531 332.160156 82.476562 330.25 C 82.800781 329.824219 82.851562 329.253906 82.601562 328.785156 L 80.226562 324.308594 C 80.019531 323.929688 80.003906 323.472656 80.179688 323.082031 C 80.5 322.410156 80.785156 321.722656 81.035156 321.023438 C 81.175781 320.613281 81.503906 320.296875 81.921875 320.175781 L 86.765625 318.683594 C 87.269531 318.523438 87.640625 318.089844 87.714844 317.566406 C 88.03125 315.175781 88.03125 312.765625 87.714844 310.375 C 87.640625 309.851562 87.269531 309.414062 86.765625 309.261719 L 81.921875 307.769531 C 81.503906 307.644531 81.175781 307.328125 81.035156 306.917969 C 80.785156 306.21875 80.5 305.53125 80.179688 304.859375 C 80.003906 304.46875 80.019531 304.011719 80.226562 303.632812 L 82.601562 299.15625 C 82.851562 298.683594 82.800781 298.117188 82.476562 297.691406 C 81.019531 295.78125 79.3125 294.070312 77.394531 292.613281 C 76.976562 292.289062 76.402344 292.242188 75.929688 292.492188 L 71.453125 294.867188 C 71.074219 295.070312 70.621094 295.082031 70.230469 294.894531 C 69.5625 294.574219 68.871094 294.289062 68.167969 294.039062 C 67.765625 293.898438 67.449219 293.570312 67.320312 293.152344 L 65.832031 288.3125 C 65.675781 287.804688 65.238281 287.433594 64.710938 287.359375 C 63.824219 287.242188 62.933594 287.164062 62.039062 287.136719 " fill-opacity="1" fill-rule="nonzero"/></g></svg>