<svg xmlns="http://www.w3.org/2000/svg" xmlns:xlink="http://www.w3.org/1999/xlink" width="500" zoomAndPan="magnify" viewBox="0 0 375 374.999991" height="500" preserveAspectRatio="xMidYMid meet" version="1.0"><defs><clipPath id="5d0e4ccea5"><path d="M 270 89 L 367.78125 89 L 367.78125 375 L 270 375 Z M 270 89 " clip-rule="nonzero"/></clipPath><clipPath id="89d3b3e9cc"><path d="M 7.03125 89 L 105 89 L 105 375 L 7.03125 375 Z M 7.03125 89 " clip-rule="nonzero"/></clipPath></defs><path fill="#000000" d="M 201.28125 374.910156 C 197.460938 374.910156 194.34375 371.792969 194.34375 367.96875 L 194.34375 347.144531 C 194.34375 343.835938 193.449219 339.714844 192.339844 334.511719 C 190.25 324.886719 187.40625 311.679688 187.40625 291.617188 C 187.40625 268.488281 225.019531 238.5 229.300781 235.164062 L 265.914062 210.113281 C 272.199219 202.386719 276.347656 195.878906 279.679688 190.589844 C 290.195312 173.996094 296.101562 166.675781 326.15625 166.675781 C 328.1875 166.675781 330.140625 167.570312 331.46875 169.144531 C 332.769531 170.691406 333.335938 172.75 332.984375 174.785156 C 332.796875 175.921875 328.105469 203.308594 318.621094 225 C 318.269531 225.839844 317.726562 226.597656 317.078125 227.222656 C 316.859375 227.410156 295.398438 248.070312 282.660156 261.65625 C 280.03125 264.449219 275.640625 264.585938 272.851562 261.980469 C 270.058594 259.351562 269.925781 254.957031 272.527344 252.167969 C 284.070312 239.855469 301.984375 222.503906 306.453125 218.164062 C 311.929688 205.257812 315.695312 189.996094 317.675781 180.777344 C 301.710938 181.726562 298.949219 186.117188 291.414062 198.019531 C 287.757812 203.796875 283.175781 210.980469 276.023438 219.683594 C 275.589844 220.199219 275.128906 220.632812 274.585938 220.984375 L 237.484375 246.363281 C 223.691406 257.15625 201.28125 279.253906 201.28125 291.617188 C 201.28125 310.1875 203.964844 322.554688 205.886719 331.582031 C 207.132812 337.382812 208.21875 342.375 208.21875 347.144531 L 208.21875 367.96875 C 208.21875 371.792969 205.101562 374.910156 201.28125 374.910156 " fill-opacity="1" fill-rule="nonzero"/><g clip-path="url(#5d0e4ccea5)"><path fill="#000000" d="M 277.59375 374.910156 C 273.773438 374.910156 270.65625 371.792969 270.65625 367.96875 L 270.65625 333.261719 C 270.65625 308.808594 300.113281 281.613281 323.796875 259.785156 C 333.148438 251.164062 345.910156 239.367188 347.023438 235.546875 C 346.96875 226.707031 353.066406 167.082031 353.851562 159.328125 L 347.808594 104.804688 C 345.613281 105.644531 343.714844 107.027344 341.980469 108.925781 C 331.46875 120.664062 331.984375 149.054688 333.039062 158.976562 C 333.066406 159.21875 333.09375 159.492188 333.09375 159.734375 L 333.09375 173.617188 C 333.09375 177.441406 329.976562 180.558594 326.15625 180.558594 C 322.335938 180.558594 319.21875 177.441406 319.21875 173.617188 L 319.21875 160.113281 C 318.621094 154.285156 315.53125 117.683594 331.628906 99.679688 C 337.375 93.28125 345.070312 89.890625 353.90625 89.890625 C 357.457031 89.890625 360.410156 92.546875 360.789062 96.074219 L 367.726562 158.542969 C 367.808594 159.03125 367.808594 159.519531 367.726562 160.007812 C 365.828125 178.605469 360.84375 228.550781 360.84375 236.085938 C 360.84375 244.140625 351.875 252.761719 333.203125 269.980469 C 312.660156 288.933594 284.53125 314.878906 284.53125 333.261719 L 284.53125 367.96875 C 284.53125 371.792969 281.414062 374.910156 277.59375 374.910156 " fill-opacity="1" fill-rule="nonzero"/></g><path fill="#000000" d="M 173.53125 374.910156 C 169.710938 374.910156 166.59375 371.792969 166.59375 367.96875 L 166.59375 347.144531 C 166.59375 342.375 167.675781 337.382812 168.925781 331.582031 C 170.875 322.554688 173.53125 310.1875 173.53125 291.617188 C 173.53125 279.226562 151.09375 257.128906 136.972656 246.121094 L 100.226562 220.984375 C 99.710938 220.632812 99.222656 220.199219 98.816406 219.683594 C 91.636719 210.980469 87.054688 203.796875 83.398438 198.019531 C 75.863281 186.117188 73.074219 181.726562 57.136719 180.777344 C 59.117188 189.996094 62.882812 205.257812 68.359375 218.164062 C 72.828125 222.503906 90.742188 239.855469 102.285156 252.167969 C 104.886719 254.957031 104.753906 259.351562 101.960938 261.980469 C 99.167969 264.613281 94.78125 264.449219 92.152344 261.65625 C 79.414062 248.070312 57.953125 227.410156 57.734375 227.222656 C 57.058594 226.597656 56.542969 225.839844 56.164062 225 C 46.707031 203.308594 42.015625 175.921875 41.828125 174.785156 C 41.476562 172.75 42.042969 170.691406 43.371094 169.144531 C 44.671875 167.570312 46.625 166.675781 48.65625 166.675781 C 78.710938 166.675781 84.617188 173.996094 95.132812 190.589844 C 98.464844 195.878906 102.613281 202.386719 108.898438 210.113281 L 145.128906 234.921875 C 149.792969 238.5 187.40625 268.488281 187.40625 291.617188 C 187.40625 311.679688 184.5625 324.886719 182.472656 334.511719 C 181.363281 339.714844 180.46875 343.835938 180.46875 347.144531 L 180.46875 367.96875 C 180.46875 371.792969 177.351562 374.910156 173.53125 374.910156 " fill-opacity="1" fill-rule="nonzero"/><g clip-path="url(#89d3b3e9cc)"><path fill="#000000" d="M 97.21875 374.910156 C 93.398438 374.910156 90.28125 371.792969 90.28125 367.96875 L 90.28125 333.261719 C 90.28125 314.878906 62.152344 288.933594 41.609375 269.980469 C 22.9375 252.761719 13.96875 244.140625 13.96875 236.085938 C 13.96875 228.550781 8.984375 178.605469 7.058594 160.007812 C 7.003906 159.519531 7.003906 159.03125 7.085938 158.542969 L 14.023438 96.074219 C 14.402344 92.546875 17.355469 89.890625 20.90625 89.890625 C 29.742188 89.890625 37.4375 93.28125 43.15625 99.679688 C 59.28125 117.683594 56.191406 154.285156 55.59375 160.113281 L 55.59375 173.617188 C 55.59375 177.441406 52.476562 180.558594 48.65625 180.558594 C 44.835938 180.558594 41.71875 177.441406 41.71875 173.617188 L 41.71875 159.734375 C 41.71875 159.492188 41.71875 159.21875 41.773438 158.976562 C 42.855469 149.054688 43.34375 120.664062 32.832031 108.925781 C 31.097656 107.027344 29.199219 105.644531 27.003906 104.804688 L 20.960938 159.328125 C 21.746094 167.082031 27.84375 226.734375 27.84375 236.085938 C 28.875 239.367188 41.664062 251.164062 51.015625 259.785156 C 74.699219 281.613281 104.15625 308.808594 104.15625 333.261719 L 104.15625 367.96875 C 104.15625 371.792969 101.039062 374.910156 97.21875 374.910156 " fill-opacity="1" fill-rule="nonzero"/></g><path fill="#000000" d="M 118.03125 13.972656 C 94.480469 13.972656 69.46875 33.113281 69.46875 68.550781 C 69.46875 110.089844 119.929688 169.28125 187.40625 207.320312 C 254.855469 169.28125 305.34375 110.089844 305.34375 68.550781 C 305.34375 33.113281 280.332031 13.972656 256.78125 13.972656 C 227.757812 13.972656 203.882812 45.859375 193.992188 75.492188 C 193.042969 78.3125 190.386719 80.238281 187.40625 80.238281 C 184.425781 80.238281 181.769531 78.3125 180.820312 75.492188 C 170.929688 45.859375 147.054688 13.972656 118.03125 13.972656 Z M 187.40625 222.207031 C 186.269531 222.207031 185.101562 221.933594 184.074219 221.363281 C 109.628906 180.476562 55.59375 116.21875 55.59375 68.550781 C 55.59375 24.085938 87.761719 0.0898438 118.03125 0.0898438 C 148.546875 0.0898438 173.339844 25.605469 187.40625 54.886719 C 201.472656 25.605469 226.238281 0.0898438 256.78125 0.0898438 C 287.050781 0.0898438 319.21875 24.085938 319.21875 68.550781 C 319.21875 116.21875 265.183594 180.476562 190.738281 221.363281 C 189.710938 221.933594 188.542969 222.207031 187.40625 222.207031 " fill-opacity="1" fill-rule="nonzero"/></svg>